<svg width="320" height="196" viewBox="0 0 320 196" fill="none" xmlns="http://www.w3.org/2000/svg">
<mask id="mask0" mask-type="alpha" maskUnits="userSpaceOnUse" x="0" y="0" width="320" height="196">
<rect width="320" height="196" fill="#C4C4C4"/>
</mask>
<g mask="url(#mask0)">
<g clip-path="url(#clip0)">
<path opacity="0.1" d="M167.184 194.36C135.052 194.36 109.003 168.312 109.003 136.18C109.003 104.048 135.052 78 167.184 78C199.316 78 225.364 104.048 225.364 136.18C225.364 168.312 199.316 194.36 167.184 194.36Z" fill="#008CFF"/>
<path opacity="0.3" d="M167.184 190.511C137.177 190.511 112.852 166.186 112.852 136.18C112.852 106.174 137.177 81.849 167.184 81.849C197.19 81.849 221.515 106.174 221.515 136.18C221.515 166.186 197.19 190.511 167.184 190.511Z" fill="#008CFF"/>
<path d="M167.183 185.677C139.847 185.677 117.687 163.517 117.687 136.181C117.687 108.844 139.847 86.6838 167.183 86.6838C194.52 86.6838 216.68 108.844 216.68 136.181C216.68 163.517 194.52 185.677 167.183 185.677Z" fill="#31ACFF"/>
<path d="M132.183 101.18C151.514 81.8489 182.853 81.8489 202.184 101.18C206.899 105.895 210.465 111.33 212.88 117.126L196.68 100.926C195.402 99.6474 193.332 99.6474 192.057 100.926C190.778 102.205 190.778 104.274 192.057 105.549L200.453 113.953C201.732 115.231 201.732 117.301 200.453 118.576C199.175 119.855 197.105 119.855 195.83 118.576L174.255 97.0012C172.976 95.7226 170.907 95.7226 169.632 97.0012C168.353 98.2798 168.353 100.349 169.632 101.625L204.382 136.381C205.66 137.66 205.66 139.729 204.382 141.005C203.103 142.28 201.033 142.283 199.758 141.005L178.183 119.43C176.905 118.151 174.835 118.151 173.56 119.43C172.281 120.708 172.281 122.778 173.56 124.053L181.96 132.453C183.238 133.732 183.238 135.801 181.96 137.076C180.681 138.355 178.612 138.355 177.336 137.076L155.761 115.502C154.483 114.223 152.413 114.223 151.138 115.502C149.859 116.78 149.859 118.85 151.138 120.125L185.881 154.881C187.16 156.16 187.16 158.23 185.881 159.505C184.603 160.784 182.533 160.784 181.258 159.505L159.683 137.93C158.404 136.651 156.335 136.651 155.059 137.93C153.781 139.209 153.781 141.278 155.059 142.553L163.459 150.953C164.738 152.232 164.738 154.301 163.459 155.577C162.181 156.855 160.111 156.855 158.836 155.577L137.261 134.002C135.982 132.723 133.913 132.723 132.638 134.002C131.359 135.28 131.359 137.35 132.638 138.625L167.381 173.379C168.659 174.657 168.659 176.727 167.381 178.002C166.102 179.281 164.033 179.281 162.757 178.002L141.179 156.43C139.901 155.152 137.831 155.152 136.556 156.43C135.277 157.709 135.277 159.778 136.556 161.054L144.956 169.454C146.234 170.732 146.234 172.802 144.956 174.077C143.677 175.356 141.608 175.356 140.332 174.077L121.489 155.234C114.002 137.271 117.568 115.795 132.183 101.18Z" fill="url(#paint0_linear)"/>
</g>
<path opacity="0.1" d="M279.674 113.348C240.642 113.348 209 81.7059 209 42.6738C209 3.64174 240.642 -28 279.674 -28C318.706 -28 350.348 3.64174 350.348 42.6738C350.348 81.7059 318.706 113.348 279.674 113.348Z" fill="#15CC7D"/>
<path opacity="0.3" d="M279.674 108.672C243.224 108.672 213.675 79.1237 213.675 42.6739C213.675 6.22407 243.224 -23.3243 279.674 -23.3243C316.123 -23.3243 345.672 6.22407 345.672 42.6739C345.672 79.1237 316.123 108.672 279.674 108.672Z" fill="#15CC7D"/>
<path d="M279.674 102.8C246.467 102.8 219.548 75.8803 219.548 42.6737C219.548 9.46719 246.467 -17.452 279.674 -17.452C312.881 -17.452 339.8 9.46719 339.8 42.6737C339.8 75.8803 312.881 102.8 279.674 102.8Z" fill="#2CF3A2"/>
<path d="M339.8 42.6737C339.8 75.879 312.879 102.799 279.674 102.799C271.572 102.799 263.842 101.194 256.789 98.292H284.618C286.811 98.292 288.589 96.5147 288.589 94.321C288.589 92.1273 286.811 90.35 284.618 90.35H270.187C267.993 90.35 266.216 88.5726 266.216 86.379C266.216 84.1853 267.993 82.4079 270.187 82.4079H307.251C309.445 82.4079 311.222 80.6306 311.222 78.4369C311.222 76.2432 309.445 74.4659 307.251 74.4659H247.55C245.356 74.4659 243.579 72.6885 243.579 70.4949C243.579 68.3012 245.356 66.5238 247.55 66.5238H284.618C286.811 66.5238 288.589 64.7465 288.589 62.5528C288.589 60.3592 286.811 58.5818 284.618 58.5818H270.187C267.993 58.5818 266.216 56.8044 266.216 54.6108C266.216 52.4171 267.993 50.6398 270.187 50.6398H307.251C309.445 50.6398 311.222 48.8624 311.222 46.6687C311.222 44.4751 309.445 42.6977 307.251 42.6977H247.55C245.356 42.6977 243.579 40.9204 243.579 38.7267C243.579 36.533 245.356 34.7557 247.55 34.7557H284.618C286.811 34.7557 288.589 32.9783 288.589 30.7846C288.589 28.591 286.811 26.8136 284.618 26.8136H270.187C267.993 26.8136 266.216 25.0363 266.216 22.8426C266.216 20.6489 267.993 18.8716 270.187 18.8716H307.251C309.445 18.8716 311.222 17.0942 311.222 14.9006C311.222 12.7069 309.445 10.9295 307.251 10.9295H247.55C245.356 10.9295 243.579 9.15218 243.579 6.95851C243.579 4.76484 245.356 2.98748 247.55 2.98748H284.618C286.811 2.98748 288.589 1.21013 288.589 -0.98354C288.589 -3.17721 286.811 -4.95456 284.618 -4.95456H270.187C267.993 -4.95456 266.216 -6.73191 266.216 -8.92558C266.216 -11.1193 267.993 -12.8966 270.187 -12.8966H302.555C324.412 -3.93779 339.8 17.5706 339.8 42.6737Z" fill="url(#paint1_linear)"/>
<path opacity="0.1" d="M46.9785 132.974C95.0392 132.974 134 94.0127 134 45.952C134 -2.10861 95.0392 -41.0695 46.9785 -41.0695C-1.08212 -41.0695 -40.043 -2.10861 -40.043 45.952C-40.043 94.0127 -1.08212 132.974 46.9785 132.974Z" fill="#FBA733"/>
<path opacity="0.3" d="M46.9785 127.214C91.8581 127.214 128.24 90.8316 128.24 45.952C128.24 1.07241 91.8581 -35.3097 46.9785 -35.3097C2.0989 -35.3097 -34.2832 1.07241 -34.2832 45.952C-34.2832 90.8316 2.0989 127.214 46.9785 127.214Z" fill="#FBA733"/>
<path d="M46.9788 119.987C87.8672 119.987 121.014 86.8404 121.014 45.952C121.014 5.06358 87.8672 -28.083 46.9788 -28.083C6.09044 -28.083 -27.0562 5.06358 -27.0562 45.952C-27.0562 86.8404 6.09044 119.987 46.9788 119.987Z" fill="#FBA733"/>
<path d="M99.3288 98.3018C128.241 69.3899 128.241 22.5141 99.3288 -6.3978C92.2751 -13.4515 84.1507 -18.785 75.4771 -22.3959L99.7074 1.83444C101.618 3.74518 101.618 6.84198 99.7074 8.75272C97.7967 10.6635 94.6998 10.6635 92.7891 8.75272L80.2264 -3.81002C78.3156 -5.72077 75.2188 -5.72077 73.3081 -3.81002C71.3973 -1.89928 71.3973 1.19752 73.3081 3.10826L105.58 35.3802C107.491 37.291 107.491 40.3878 105.58 42.2985C103.669 44.2093 100.572 44.2093 98.6617 42.2985L46.6806 -9.68267C44.7698 -11.5934 41.673 -11.5934 39.7623 -9.68267C37.8515 -7.77193 37.8515 -4.67512 39.7623 -2.76438L72.0342 29.5076C73.945 31.4183 73.945 34.5151 72.0342 36.4259C70.1235 38.3366 67.0267 38.3366 65.1159 36.4259L52.5532 23.8631C50.6425 21.9524 47.5457 21.9524 45.6349 23.8631C43.7242 25.7739 43.7242 28.8707 45.6349 30.7814L77.9069 63.0534C79.8176 64.9641 79.8176 68.0609 77.9069 69.9717C75.9962 71.8824 72.8993 71.8824 70.9886 69.9717L19.0074 17.9905C17.0967 16.0797 13.9999 16.0797 12.0891 17.9905C10.1784 19.9012 10.1784 22.998 12.0891 24.9088L44.3611 57.1807C46.2718 59.0915 46.2718 62.1883 44.3611 64.099C42.4503 66.0098 39.3535 66.0098 37.4428 64.099L24.8801 51.5363C22.9693 49.6255 19.8725 49.6255 17.9618 51.5363C16.051 53.447 16.051 56.5438 17.9618 58.4546L50.2337 90.7266C52.1445 92.6373 52.1445 95.7341 50.2337 97.6448C48.323 99.5556 45.2262 99.5556 43.3154 97.6448L-8.66575 45.6636C-10.5765 43.7529 -13.6733 43.7529 -15.584 45.6636C-17.4948 47.5744 -17.4948 50.6712 -15.584 52.5819L16.6879 84.8539C18.5987 86.7646 18.5987 89.8614 16.6879 91.7722C14.7772 93.6829 11.6804 93.6829 9.76965 91.7722L-2.7931 79.2094C-4.70384 77.2987 -7.80065 77.2987 -9.71139 79.2094C-11.6221 81.1202 -11.6221 84.217 -9.71139 86.1277L18.4708 114.31C45.3491 125.491 77.4706 120.16 99.3288 98.3018Z" fill="url(#paint2_linear)"/>
</g>
<defs>
<linearGradient id="paint0_linear" x1="165.283" y1="86.6816" x2="165.283" y2="178.961" gradientUnits="userSpaceOnUse">
<stop stop-color="#008CFF"/>
<stop offset="1" stop-color="#008CFF" stop-opacity="0"/>
</linearGradient>
<linearGradient id="paint1_linear" x1="291.689" y1="-12.8966" x2="291.689" y2="102.799" gradientUnits="userSpaceOnUse">
<stop stop-color="#15CC7D"/>
<stop offset="1" stop-color="#15CC7D" stop-opacity="0"/>
</linearGradient>
<linearGradient id="paint2_linear" x1="51.9978" y1="-22.3959" x2="51.9978" y2="119.988" gradientUnits="userSpaceOnUse">
<stop stop-color="#DD8533"/>
<stop offset="1" stop-color="#FBA733" stop-opacity="0.4"/>
</linearGradient>
<clipPath id="clip0">
<rect width="116.364" height="116.364" transform="matrix(-1 0 0 1 225.364 78)" fill="white"/>
</clipPath>
</defs>
</svg>
