<svg width="558" height="624" viewBox="0 0 558 624" fill="none" xmlns="http://www.w3.org/2000/svg">
<mask id="mask0" mask-type="alpha" maskUnits="userSpaceOnUse" x="0" y="0" width="558" height="624">
<rect width="558" height="624" fill="#C4C4C4"/>
</mask>
<g mask="url(#mask0)">
<path opacity="0.1" d="M210.35 574.202C156.974 574.202 113.704 530.932 113.704 477.556C113.704 424.18 156.974 380.91 210.35 380.91C263.727 380.91 306.997 424.18 306.997 477.556C306.997 530.932 263.727 574.202 210.35 574.202Z" fill="#008CFF"/>
<path opacity="0.3" d="M210.351 567.808C160.506 567.808 120.098 527.401 120.098 477.556C120.098 427.711 160.506 387.304 210.351 387.304C260.195 387.304 300.603 427.711 300.603 477.556C300.603 527.401 260.195 567.808 210.351 567.808Z" fill="#008CFF"/>
<path d="M210.35 559.779C164.941 559.779 128.129 522.967 128.129 477.557C128.129 432.147 164.941 395.335 210.35 395.335C255.76 395.335 292.572 432.147 292.572 477.557C292.572 522.967 255.76 559.779 210.35 559.779Z" fill="#31ACFF"/>
<path d="M152.209 419.415C184.321 387.304 236.38 387.304 268.491 419.415C276.325 427.249 282.248 436.275 286.26 445.904L259.349 418.994C257.225 416.87 253.788 416.87 251.669 418.994C249.545 421.118 249.545 424.555 251.669 426.674L265.617 440.633C267.741 442.757 267.741 446.195 265.617 448.313C263.493 450.437 260.056 450.437 257.937 448.313L222.098 412.474C219.974 410.35 216.536 410.35 214.418 412.474C212.294 414.598 212.294 418.036 214.418 420.154L272.143 477.89C274.267 480.014 274.267 483.452 272.143 485.57C270.019 487.689 266.581 487.694 264.462 485.57L228.623 449.731C226.499 447.607 223.061 447.607 220.943 449.731C218.819 451.855 218.819 455.293 220.943 457.411L234.896 471.365C237.02 473.489 237.02 476.926 234.896 479.045C232.772 481.169 229.335 481.169 227.216 479.045L191.377 443.206C189.253 441.082 185.815 441.082 183.697 443.206C181.573 445.33 181.573 448.767 183.697 450.886L241.411 508.622C243.535 510.746 243.535 514.184 241.411 516.302C239.287 518.426 235.849 518.426 233.73 516.302L197.891 480.463C195.767 478.339 192.329 478.339 190.211 480.463C188.087 482.587 188.087 486.025 190.211 488.143L204.165 502.097C206.289 504.221 206.289 507.658 204.165 509.777C202.041 511.901 198.603 511.901 196.484 509.777L160.645 473.938C158.521 471.814 155.083 471.814 152.965 473.938C150.841 476.062 150.841 479.499 152.965 481.618L210.679 539.348C212.803 541.472 212.803 544.91 210.679 547.028C208.555 549.152 205.117 549.152 202.999 547.028L167.154 511.195C165.03 509.071 161.592 509.071 159.474 511.195C157.35 513.319 157.35 516.756 159.474 518.875L173.427 532.828C175.551 534.952 175.551 538.39 173.427 540.509C171.303 542.633 167.865 542.633 165.747 540.509L134.446 509.208C122.009 479.368 127.932 443.693 152.209 419.415Z" fill="url(#paint0_linear)"/>
<path opacity="0.1" d="M419.854 438.331C355.016 438.331 302.454 385.769 302.454 320.931C302.454 256.093 355.016 203.531 419.854 203.531C484.692 203.531 537.254 256.093 537.254 320.931C537.254 385.769 484.692 438.331 419.854 438.331Z" fill="#15CC7D"/>
<path opacity="0.3" d="M419.854 430.564C359.305 430.564 310.221 381.48 310.221 320.931C310.221 260.382 359.305 211.298 419.854 211.298C480.403 211.298 529.487 260.382 529.487 320.931C529.487 381.48 480.403 430.564 419.854 430.564Z" fill="#15CC7D"/>
<path d="M419.854 420.809C364.692 420.809 319.976 376.092 319.976 320.931C319.976 265.77 364.692 221.053 419.854 221.053C475.015 221.053 519.732 265.77 519.732 320.931C519.732 376.092 475.015 420.809 419.854 420.809Z" fill="#2CF3A2"/>
<path d="M519.732 320.931C519.732 376.09 475.013 420.809 419.854 420.809C406.395 420.809 393.555 418.142 381.838 413.321H428.066C431.71 413.321 434.663 410.369 434.663 406.725C434.663 403.081 431.71 400.128 428.066 400.128H404.094C400.45 400.128 397.498 397.176 397.498 393.532C397.498 389.888 400.45 386.935 404.094 386.935H465.663C469.308 386.935 472.26 383.983 472.26 380.339C472.26 376.695 469.308 373.742 465.663 373.742H366.49C362.846 373.742 359.894 370.79 359.894 367.146C359.894 363.502 362.846 360.55 366.49 360.55H428.066C431.71 360.55 434.663 357.597 434.663 353.953C434.663 350.309 431.71 347.357 428.066 347.357H404.094C400.45 347.357 397.498 344.404 397.498 340.76C397.498 337.116 400.45 334.164 404.094 334.164H465.663C469.308 334.164 472.26 331.211 472.26 327.567C472.26 323.923 469.308 320.971 465.663 320.971H366.49C362.846 320.971 359.894 318.018 359.894 314.374C359.894 310.73 362.846 307.778 366.49 307.778H428.066C431.71 307.778 434.663 304.825 434.663 301.181C434.663 297.537 431.71 294.585 428.066 294.585H404.094C400.45 294.585 397.498 291.632 397.498 287.988C397.498 284.344 400.45 281.392 404.094 281.392H465.663C469.308 281.392 472.26 278.439 472.26 274.795C472.26 271.151 469.308 268.199 465.663 268.199H366.49C362.846 268.199 359.894 265.246 359.894 261.602C359.894 257.958 362.846 255.006 366.49 255.006H428.066C431.71 255.006 434.663 252.054 434.663 248.41C434.663 244.766 431.71 241.813 428.066 241.813H404.094C400.45 241.813 397.498 238.861 397.498 235.217C397.498 231.573 400.45 228.62 404.094 228.62H457.863C494.171 243.502 519.732 279.231 519.732 320.931Z" fill="url(#paint1_linear)"/>
<path opacity="0.1" d="M124.507 344.525C238.484 344.525 330.88 252.128 330.88 138.151C330.88 24.174 238.484 -68.2227 124.507 -68.2227C10.5295 -68.2227 -81.8672 24.174 -81.8672 138.151C-81.8672 252.128 10.5295 344.525 124.507 344.525Z" fill="#FBA733"/>
<path opacity="0.3" d="M124.507 330.865C230.94 330.865 317.221 244.584 317.221 138.151C317.221 31.7178 230.94 -54.5632 124.507 -54.5632C18.0736 -54.5632 -68.2075 31.7178 -68.2075 138.151C-68.2075 244.584 18.0736 330.865 124.507 330.865Z" fill="#FBA733"/>
<path d="M124.507 313.727C221.474 313.727 300.082 235.119 300.082 138.151C300.082 41.1832 221.474 -37.4248 124.507 -37.4248C27.5388 -37.4248 -51.0692 41.1832 -51.0692 138.151C-51.0692 235.119 27.5388 313.727 124.507 313.727Z" fill="#FBA733"/>
<path d="M248.655 262.3C317.221 193.734 317.221 82.5671 248.655 14.0019C231.927 -2.72617 212.66 -15.3748 192.09 -23.938L249.553 33.5248C254.085 38.0562 254.085 45.4003 249.553 49.9317C245.022 54.4631 237.678 54.4631 233.146 49.9317L203.353 20.1388C198.822 15.6075 191.478 15.6075 186.947 20.1388C182.415 24.6702 182.415 32.0144 186.947 36.5457L263.48 113.08C268.012 117.611 268.012 124.955 263.48 129.486C258.949 134.018 251.605 134.018 247.073 129.486L123.799 6.2117C119.267 1.68033 111.923 1.68033 107.392 6.2117C102.86 10.7431 102.86 18.0872 107.392 22.6186L183.926 99.1524C188.457 103.684 188.457 111.028 183.926 115.559C179.394 120.091 172.05 120.091 167.519 115.559L137.726 85.7664C133.195 81.2351 125.85 81.2351 121.319 85.7664C116.788 90.2978 116.788 97.642 121.319 102.173L197.853 178.707C202.384 183.239 202.384 190.583 197.853 195.114C193.321 199.645 185.977 199.645 181.446 195.114L58.1712 71.8393C53.6398 67.3079 46.2956 67.3079 41.7643 71.8393C37.2329 76.3707 37.2329 83.7148 41.7643 88.2462L118.298 164.78C122.829 169.311 122.829 176.656 118.298 181.187C113.767 185.718 106.423 185.718 101.891 181.187L72.0983 151.394C67.5669 146.863 60.2228 146.863 55.6914 151.394C51.16 155.925 51.16 163.27 55.6914 167.801L132.225 244.335C136.757 248.866 136.757 256.21 132.225 260.742C127.694 265.273 120.35 265.273 115.818 260.742L-7.45642 137.467C-11.9878 132.936 -19.3319 132.936 -23.8633 137.467C-28.3947 141.998 -28.3947 149.342 -23.8633 153.874L52.6705 230.408C57.2019 234.939 57.2019 242.283 52.6705 246.814C48.1391 251.346 40.795 251.346 36.2636 246.814L6.47071 217.022C1.93933 212.49 -5.40481 212.49 -9.93619 217.022C-14.4676 221.553 -14.4676 228.897 -9.93619 233.428L56.8986 300.263C120.641 326.78 196.818 314.137 248.655 262.3Z" fill="url(#paint2_linear)"/>
</g>
<defs>
<linearGradient id="paint0_linear" x1="207.194" y1="395.332" x2="207.194" y2="548.621" gradientUnits="userSpaceOnUse">
<stop stop-color="#008CFF"/>
<stop offset="1" stop-color="#008CFF" stop-opacity="0"/>
</linearGradient>
<linearGradient id="paint1_linear" x1="439.813" y1="228.62" x2="439.813" y2="420.809" gradientUnits="userSpaceOnUse">
<stop stop-color="#15CC7D"/>
<stop offset="1" stop-color="#15CC7D" stop-opacity="0"/>
</linearGradient>
<linearGradient id="paint2_linear" x1="136.409" y1="-23.938" x2="136.409" y2="313.728" gradientUnits="userSpaceOnUse">
<stop stop-color="#DD8533"/>
<stop offset="1" stop-color="#FBA733" stop-opacity="0.4"/>
</linearGradient>
</defs>
</svg>
