<svg width="467" height="549" viewBox="0 0 467 549" fill="none" xmlns="http://www.w3.org/2000/svg">
<mask id="mask0" mask-type="alpha" maskUnits="userSpaceOnUse" x="0" y="0" width="467" height="549">
<rect width="467" height="549" fill="#C4C4C4"/>
</mask>
<g mask="url(#mask0)">
<path opacity="0.1" d="M184.998 504.995C138.055 504.995 99.9999 466.94 99.9999 419.998C99.9999 373.055 138.055 335 184.998 335C231.94 335 269.995 373.055 269.995 419.998C269.995 466.94 231.94 504.995 184.998 504.995Z" fill="#008CFF"/>
<path opacity="0.3" d="M184.997 499.372C141.16 499.372 105.623 463.835 105.623 419.997C105.623 376.16 141.16 340.623 184.997 340.623C228.835 340.623 264.372 376.16 264.372 419.997C264.372 463.835 228.835 499.372 184.997 499.372Z" fill="#008CFF"/>
<path d="M184.998 492.31C145.061 492.31 112.686 459.935 112.686 419.999C112.686 380.062 145.061 347.687 184.998 347.687C224.934 347.687 257.309 380.062 257.309 419.999C257.309 459.935 224.934 492.31 184.998 492.31Z" fill="#31ACFF"/>
<path d="M133.864 368.864C162.105 340.623 207.89 340.623 236.131 368.864C243.02 375.754 248.229 383.692 251.758 392.161L228.091 368.493C226.223 366.625 223.199 366.625 221.336 368.493C219.468 370.361 219.468 373.385 221.336 375.248L233.603 387.525C235.471 389.393 235.471 392.416 233.603 394.279C231.735 396.147 228.712 396.147 226.849 394.279L195.329 362.76C193.461 360.892 190.438 360.892 188.575 362.76C186.707 364.628 186.707 367.651 188.575 369.514L239.342 420.291C241.21 422.159 241.21 425.183 239.342 427.046C237.474 428.909 234.451 428.914 232.587 427.046L201.068 395.526C199.2 393.658 196.176 393.658 194.313 395.526C192.445 397.394 192.445 400.418 194.313 402.281L206.585 414.552C208.453 416.42 208.453 419.444 206.585 421.307C204.717 423.175 201.694 423.175 199.831 421.307L168.311 389.787C166.443 387.919 163.42 387.919 161.556 389.787C159.688 391.655 159.688 394.679 161.556 396.542L212.314 447.319C214.182 449.187 214.182 452.21 212.314 454.074C210.446 455.942 207.423 455.942 205.56 454.074L174.04 422.554C172.172 420.686 169.149 420.686 167.285 422.554C165.417 424.422 165.417 427.445 167.285 429.309L179.557 441.58C181.425 443.448 181.425 446.472 179.557 448.335C177.689 450.203 174.666 450.203 172.803 448.335L141.283 416.815C139.415 414.947 136.392 414.947 134.529 416.815C132.661 418.683 132.661 421.707 134.529 423.57L185.286 474.342C187.154 476.21 187.154 479.233 185.286 481.097C183.418 482.965 180.395 482.965 178.532 481.097L147.007 449.582C145.139 447.714 142.116 447.714 140.253 449.582C138.385 451.45 138.385 454.473 140.253 456.336L152.525 468.608C154.393 470.476 154.393 473.5 152.525 475.363C150.657 477.231 147.633 477.231 145.77 475.363L118.242 447.834C107.303 421.591 112.512 390.216 133.864 368.864Z" fill="url(#paint0_linear)"/>
<path opacity="0.1" d="M369.25 385.5C312.227 385.5 266 339.273 266 282.25C266 225.227 312.227 179 369.25 179C426.273 179 472.5 225.227 472.5 282.25C472.5 339.273 426.273 385.5 369.25 385.5Z" fill="#15CC7D"/>
<path opacity="0.3" d="M369.25 378.669C315.999 378.669 272.831 335.501 272.831 282.25C272.831 228.999 315.999 185.831 369.25 185.831C422.501 185.831 465.669 228.999 465.669 282.25C465.669 335.501 422.501 378.669 369.25 378.669Z" fill="#15CC7D"/>
<path d="M369.25 370.09C320.737 370.09 281.41 330.763 281.41 282.25C281.41 233.737 320.737 194.41 369.25 194.41C417.762 194.41 457.09 233.737 457.09 282.25C457.09 330.763 417.762 370.09 369.25 370.09Z" fill="#2CF3A2"/>
<path d="M457.09 282.25C457.09 330.761 417.761 370.09 369.25 370.09C357.413 370.09 346.12 367.745 335.816 363.505H376.473C379.677 363.505 382.274 360.908 382.274 357.703C382.274 354.499 379.677 351.902 376.473 351.902H355.39C352.185 351.902 349.588 349.305 349.588 346.101C349.588 342.896 352.185 340.299 355.39 340.299H409.538C412.743 340.299 415.34 337.703 415.34 334.498C415.34 331.293 412.743 328.696 409.538 328.696H322.318C319.113 328.696 316.517 326.1 316.517 322.895C316.517 319.69 319.113 317.093 322.318 317.093H376.473C379.677 317.093 382.274 314.497 382.274 311.292C382.274 308.087 379.677 305.491 376.473 305.491H355.39C352.185 305.491 349.588 302.894 349.588 299.689C349.588 296.484 352.185 293.888 355.39 293.888H409.538C412.743 293.888 415.34 291.291 415.34 288.086C415.34 284.882 412.743 282.285 409.538 282.285H322.318C319.113 282.285 316.517 279.688 316.517 276.484C316.517 273.279 319.113 270.682 322.318 270.682H376.473C379.677 270.682 382.274 268.086 382.274 264.881C382.274 261.676 379.677 259.079 376.473 259.079H355.39C352.185 259.079 349.588 256.483 349.588 253.278C349.588 250.073 352.185 247.477 355.39 247.477H409.538C412.743 247.477 415.34 244.88 415.34 241.675C415.34 238.47 412.743 235.874 409.538 235.874H322.318C319.113 235.874 316.517 233.277 316.517 230.072C316.517 226.867 319.113 224.271 322.318 224.271H376.473C379.677 224.271 382.274 221.674 382.274 218.469C382.274 215.265 379.677 212.668 376.473 212.668H355.39C352.185 212.668 349.588 210.071 349.588 206.867C349.588 203.662 352.185 201.065 355.39 201.065H402.678C434.61 214.153 457.09 245.576 457.09 282.25Z" fill="url(#paint1_linear)"/>
<path opacity="0.1" d="M109.5 303C209.74 303 291 221.74 291 121.5C291 21.2603 209.74 -60 109.5 -60C9.26033 -60 -72 21.2603 -72 121.5C-72 221.74 9.26033 303 109.5 303Z" fill="#FBA733"/>
<path opacity="0.3" d="M109.5 290.987C203.105 290.987 278.987 215.105 278.987 121.5C278.987 27.8949 203.105 -47.9869 109.5 -47.9869C15.8953 -47.9869 -59.9866 27.8949 -59.9866 121.5C-59.9866 215.105 15.8953 290.987 109.5 290.987Z" fill="#FBA733"/>
<path d="M109.5 275.914C194.781 275.914 263.914 206.781 263.914 121.5C263.914 36.2196 194.781 -32.9139 109.5 -32.9139C24.2195 -32.9139 -44.9141 36.2196 -44.9141 121.5C-44.9141 206.781 24.2195 275.914 109.5 275.914Z" fill="#FBA733"/>
<path d="M218.685 230.686C278.987 170.384 278.987 72.6157 218.685 12.3144C203.974 -2.3974 187.029 -13.5215 168.938 -21.0526L219.475 29.4843C223.46 33.4696 223.46 39.9285 219.475 43.9138C215.49 47.899 209.031 47.899 205.046 43.9138L178.844 17.7117C174.859 13.7265 168.4 13.7265 164.414 17.7117C160.429 21.697 160.429 28.1559 164.414 32.1412L231.724 99.4506C235.709 103.436 235.709 109.895 231.724 113.88C227.739 117.865 221.28 117.865 217.294 113.88L108.878 5.46321C104.892 1.47799 98.4334 1.47799 94.4482 5.46321C90.4629 9.44843 90.4629 15.9074 94.4482 19.8926L161.758 87.202C165.743 91.1873 165.743 97.6462 161.758 101.631C157.772 105.617 151.313 105.617 147.328 101.631L121.126 75.4294C117.141 71.4442 110.682 71.4442 106.697 75.4294C102.711 79.4146 102.711 85.8736 106.697 89.8588L174.006 157.168C177.991 161.153 177.991 167.612 174.006 171.598C170.021 175.583 163.562 175.583 159.577 171.598L51.1599 63.1809C47.1747 59.1957 40.7157 59.1957 36.7305 63.1809C32.7453 67.1661 32.7453 73.6251 36.7305 77.6103L104.04 144.92C108.025 148.905 108.025 155.364 104.04 159.349C100.055 163.334 93.5957 163.334 89.6105 159.349L63.4084 133.147C59.4232 129.162 52.9642 129.162 48.979 133.147C44.9938 137.132 44.9938 143.591 48.979 147.577L116.288 214.886C120.274 218.871 120.274 225.33 116.288 229.315C112.303 233.301 105.844 233.301 101.859 229.315L-6.55775 120.899C-10.543 116.913 -17.0019 116.913 -20.9872 120.899C-24.9724 124.884 -24.9724 131.343 -20.9872 135.328L46.3222 202.637C50.3074 206.623 50.3074 213.082 46.3222 217.067C42.337 221.052 35.878 221.052 31.8928 217.067L5.69078 190.865C1.70556 186.88 -4.75342 186.88 -8.73863 190.865C-12.7239 194.85 -12.7239 201.309 -8.73863 205.294L50.0407 264.074C106.1 287.394 173.096 276.275 218.685 230.686Z" fill="url(#paint2_linear)"/>
</g>
<defs>
<linearGradient id="paint0_linear" x1="182.221" y1="347.683" x2="182.221" y2="482.498" gradientUnits="userSpaceOnUse">
<stop stop-color="#008CFF"/>
<stop offset="1" stop-color="#008CFF" stop-opacity="0"/>
</linearGradient>
<linearGradient id="paint1_linear" x1="386.803" y1="201.065" x2="386.803" y2="370.09" gradientUnits="userSpaceOnUse">
<stop stop-color="#15CC7D"/>
<stop offset="1" stop-color="#15CC7D" stop-opacity="0"/>
</linearGradient>
<linearGradient id="paint2_linear" x1="119.968" y1="-21.0526" x2="119.968" y2="275.916" gradientUnits="userSpaceOnUse">
<stop stop-color="#DD8533"/>
<stop offset="1" stop-color="#FBA733" stop-opacity="0.4"/>
</linearGradient>
</defs>
</svg>
