<svg width="768" height="364" viewBox="0 0 768 364" fill="none" xmlns="http://www.w3.org/2000/svg">
<g opacity="0.05">
<mask id="mask0" mask-type="alpha" maskUnits="userSpaceOnUse" x="-12" y="0" width="793" height="364">
<path d="M123.766 222C-29.8344 206 -20.2346 57.3333 -2.23461 0H769.765C823.765 218 654.938 217.026 571.766 234C473.766 254 513.783 364 401.766 364C277.766 364 315.766 242 123.766 222Z" fill="url(#paint0_linear)"/>
</mask>
<g mask="url(#mask0)">
<g style="mix-blend-mode:lighten">
<circle cx="639.922" cy="24.9581" r="6.75158" transform="rotate(123.288 639.922 24.9581)" fill="#2CF3A2"/>
<circle cx="605.954" cy="76.6931" r="11.2526" transform="rotate(123.288 605.954 76.6931)" fill="#2CF3A2"/>
<circle r="3.37579" transform="matrix(-0.548844 0.835925 0.835925 0.548844 658.573 103.164)" fill="#2CF3A2"/>
<circle r="3.37579" transform="matrix(-0.548844 0.835925 0.835925 0.548844 637.119 70.2322)" fill="#2CF3A2"/>
<circle cx="663.176" cy="130.912" r="3.70861" transform="rotate(-161.712 663.176 130.912)" fill="#2CF3A2"/>
<circle cx="630.897" cy="120.245" r="6.18102" transform="rotate(-161.712 630.897 120.245)" fill="#2CF3A2"/>
<circle r="1.85431" transform="matrix(-0.949493 -0.313789 -0.313789 0.949493 624.333 151.926)" fill="#2CF3A2"/>
<circle r="1.85431" transform="matrix(-0.949493 -0.313789 -0.313789 0.949493 638.756 135.861)" fill="#2CF3A2"/>
<circle cx="695.763" cy="124.359" r="3.70861" transform="rotate(138.288 695.763 124.359)" fill="#2CF3A2"/>
<circle cx="670.386" cy="146.979" r="6.18102" transform="rotate(138.288 670.386 146.979)" fill="#2CF3A2"/>
<circle r="1.85431" transform="matrix(-0.746496 0.66539 0.66539 0.746496 694.541 168.504)" fill="#2CF3A2"/>
<circle r="1.85431" transform="matrix(-0.746496 0.66539 0.66539 0.746496 687.839 147.982)" fill="#2CF3A2"/>
<circle cx="674.06" cy="50.3879" r="11.2526" transform="rotate(98.9619 674.06 50.3879)" fill="#2CF3A2"/>
<circle r="3.37579" transform="matrix(-0.155778 0.987792 0.987792 0.155778 732.911 52.8339)" fill="#2CF3A2"/>
<circle r="3.37579" transform="matrix(-0.155778 0.987792 0.987792 0.155778 699.797 31.6633)" fill="#2CF3A2"/>
<circle cx="733.094" cy="151.111" r="6.75158" transform="rotate(-72.4855 733.094 151.111)" fill="#2CF3A2"/>
<circle cx="751.72" cy="92.0906" r="11.2526" transform="rotate(-72.4855 751.72 92.0906)" fill="#2CF3A2"/>
<circle r="3.37579" transform="matrix(0.300947 -0.953641 -0.953641 -0.300947 693.887 80.9196)" fill="#2CF3A2"/>
<circle r="3.37579" transform="matrix(0.300947 -0.953641 -0.953641 -0.300947 723.485 106.78)" fill="#2CF3A2"/>
<circle cx="340.08" cy="73.235" r="6.75158" transform="rotate(90.5248 340.08 73.235)" fill="#2CF3A2"/>
<circle cx="339.513" cy="135.122" r="11.2526" transform="rotate(90.5248 339.513 135.122)" fill="#2CF3A2"/>
<circle r="3.37579" transform="matrix(-0.0091599 0.999958 0.999958 0.0091599 398.086 128.907)" fill="#2CF3A2"/>
<circle r="3.37579" transform="matrix(-0.0091599 0.999958 0.999958 0.0091599 362.224 112.824)" fill="#2CF3A2"/>
<circle cx="416.973" cy="149.749" r="3.70861" transform="rotate(165.525 416.973 149.749)" fill="#2CF3A2"/>
<circle cx="384.057" cy="158.247" r="6.18102" transform="rotate(165.525 384.057 158.247)" fill="#2CF3A2"/>
<circle r="1.85431" transform="matrix(-0.968256 0.24996 0.24996 0.968256 395.682 188.441)" fill="#2CF3A2"/>
<circle r="1.85431" transform="matrix(-0.968256 0.24996 0.24996 0.968256 399.116 167.126)" fill="#2CF3A2"/>
<circle cx="440.83" cy="126.603" r="3.70861" transform="rotate(105.525 440.83 126.603)" fill="#2CF3A2"/>
<circle cx="431.731" cy="159.359" r="6.18102" transform="rotate(105.525 431.731 159.359)" fill="#2CF3A2"/>
<circle r="1.85431" transform="matrix(-0.267656 0.963515 0.963515 0.267656 463.692 164.388)" fill="#2CF3A2"/>
<circle r="1.85431" transform="matrix(-0.267656 0.963515 0.963515 0.267656 446.951 150.756)" fill="#2CF3A2"/>
<circle cx="357.573" cy="19.519" r="6.75158" transform="rotate(66.199 357.573 19.519)" fill="#2CF3A2"/>
<circle cx="382.55" cy="76.1449" r="11.2526" transform="rotate(66.199 382.55 76.1449)" fill="#2CF3A2"/>
<circle r="3.37579" transform="matrix(0.403561 0.914953 0.914953 -0.403561 433.362 46.3537)" fill="#2CF3A2"/>
<circle r="3.37579" transform="matrix(0.403561 0.914953 0.914953 -0.403561 394.059 46.4714)" fill="#2CF3A2"/>
<circle cx="486.7" cy="128.898" r="6.75158" transform="rotate(-105.248 486.7 128.898)" fill="#2CF3A2"/>
<circle cx="470.423" cy="69.187" r="11.2526" transform="rotate(-105.248 470.423 69.187)" fill="#2CF3A2"/>
<circle r="3.37579" transform="matrix(-0.263004 -0.964795 -0.964795 0.263004 415.745 91.0902)" fill="#2CF3A2"/>
<circle r="3.37579" transform="matrix(-0.263004 -0.964795 -0.964795 0.263004 454.629 96.819)" fill="#2CF3A2"/>
<circle cx="533.163" cy="149.711" r="4.24164" transform="rotate(123.288 533.163 149.711)" fill="#2CF3A2"/>
<circle cx="511.823" cy="182.213" r="7.0694" transform="rotate(123.288 511.823 182.213)" fill="#2CF3A2"/>
<circle r="2.12082" transform="matrix(-0.548844 0.835925 0.835925 0.548844 544.88 198.843)" fill="#2CF3A2"/>
<circle r="2.12082" transform="matrix(-0.548844 0.835925 0.835925 0.548844 531.402 178.154)" fill="#2CF3A2"/>
<circle cx="547.772" cy="216.276" r="2.32992" transform="rotate(-161.712 547.772 216.276)" fill="#2CF3A2"/>
<circle cx="527.493" cy="209.574" r="3.88319" transform="rotate(-161.712 527.493 209.574)" fill="#2CF3A2"/>
<circle r="1.16496" transform="matrix(-0.949493 -0.313789 -0.313789 0.949493 523.369 229.478)" fill="#2CF3A2"/>
<circle r="1.16496" transform="matrix(-0.949493 -0.313789 -0.313789 0.949493 532.43 219.385)" fill="#2CF3A2"/>
<circle cx="568.245" cy="212.158" r="2.32992" transform="rotate(138.288 568.245 212.158)" fill="#2CF3A2"/>
<circle cx="552.301" cy="226.37" r="3.88319" transform="rotate(138.288 552.301 226.37)" fill="#2CF3A2"/>
<circle r="1.16496" transform="matrix(-0.746496 0.66539 0.66539 0.746496 567.477 239.893)" fill="#2CF3A2"/>
<circle r="1.16496" transform="matrix(-0.746496 0.66539 0.66539 0.746496 563.267 226.999)" fill="#2CF3A2"/>
<circle cx="560.667" cy="127.28" r="4.24164" transform="rotate(98.9619 560.667 127.28)" fill="#2CF3A2"/>
<circle cx="554.61" cy="165.687" r="7.0694" transform="rotate(98.9619 554.61 165.687)" fill="#2CF3A2"/>
<circle r="2.12082" transform="matrix(-0.155778 0.987792 0.987792 0.155778 591.583 167.223)" fill="#2CF3A2"/>
<circle r="2.12082" transform="matrix(-0.155778 0.987792 0.987792 0.155778 570.779 153.923)" fill="#2CF3A2"/>
<circle cx="591.698" cy="228.965" r="4.24164" transform="rotate(-72.4855 591.698 228.965)" fill="#2CF3A2"/>
<circle cx="603.399" cy="191.886" r="7.0694" transform="rotate(-72.4855 603.399 191.886)" fill="#2CF3A2"/>
<circle r="2.12082" transform="matrix(0.300947 -0.953641 -0.953641 -0.300947 567.066 184.868)" fill="#2CF3A2"/>
<circle r="2.12082" transform="matrix(0.300947 -0.953641 -0.953641 -0.300947 585.661 201.115)" fill="#2CF3A2"/>
<circle cx="346.228" cy="236.176" r="4.24164" transform="rotate(90.5248 346.228 236.176)" fill="#2CF3A2"/>
<circle cx="345.872" cy="275.056" r="7.0694" transform="rotate(90.5248 345.872 275.056)" fill="#2CF3A2"/>
<circle r="2.12082" transform="matrix(-0.0091599 0.999958 0.999958 0.0091599 382.67 271.152)" fill="#2CF3A2"/>
<circle r="2.12082" transform="matrix(-0.0091599 0.999958 0.999958 0.0091599 360.139 261.048)" fill="#2CF3A2"/>
<circle cx="394.535" cy="284.246" r="2.32992" transform="rotate(165.525 394.535 284.246)" fill="#2CF3A2"/>
<circle cx="373.856" cy="289.584" r="3.88319" transform="rotate(165.525 373.856 289.584)" fill="#2CF3A2"/>
<circle r="1.16496" transform="matrix(-0.968256 0.24996 0.24996 0.968256 381.159 308.554)" fill="#2CF3A2"/>
<circle r="1.16496" transform="matrix(-0.968256 0.24996 0.24996 0.968256 383.317 295.163)" fill="#2CF3A2"/>
<circle cx="409.523" cy="269.704" r="2.32992" transform="rotate(105.525 409.523 269.704)" fill="#2CF3A2"/>
<circle cx="403.807" cy="290.283" r="3.88319" transform="rotate(105.525 403.807 290.283)" fill="#2CF3A2"/>
<circle r="1.16496" transform="matrix(-0.267656 0.963515 0.963515 0.267656 423.886 293.442)" fill="#2CF3A2"/>
<circle r="1.16496" transform="matrix(-0.267656 0.963515 0.963515 0.267656 413.368 284.878)" fill="#2CF3A2"/>
<circle cx="357.218" cy="202.429" r="4.24164" transform="rotate(66.199 357.218 202.429)" fill="#2CF3A2"/>
<circle cx="372.909" cy="238.004" r="7.0694" transform="rotate(66.199 372.909 238.004)" fill="#2CF3A2"/>
<circle r="2.12082" transform="matrix(0.403561 0.914953 0.914953 -0.403561 404.831 219.288)" fill="#2CF3A2"/>
<circle r="2.12082" transform="matrix(0.403561 0.914953 0.914953 -0.403561 380.139 219.362)" fill="#2CF3A2"/>
<circle cx="438.341" cy="271.146" r="4.24164" transform="rotate(-105.248 438.341 271.146)" fill="#2CF3A2"/>
<circle cx="428.114" cy="233.633" r="7.0694" transform="rotate(-105.248 428.114 233.633)" fill="#2CF3A2"/>
<circle r="2.12082" transform="matrix(-0.263004 -0.964795 -0.964795 0.263004 393.763 247.393)" fill="#2CF3A2"/>
<circle r="2.12082" transform="matrix(-0.263004 -0.964795 -0.964795 0.263004 418.192 250.993)" fill="#2CF3A2"/>
<circle cx="196.278" cy="137.724" r="4.24164" transform="rotate(90.5248 196.278 137.724)" fill="#2CF3A2"/>
<circle cx="195.922" cy="176.604" r="7.0694" transform="rotate(90.5248 195.922 176.604)" fill="#2CF3A2"/>
<circle r="2.12082" transform="matrix(-0.0091599 0.999958 0.999958 0.0091599 232.72 172.699)" fill="#2CF3A2"/>
<circle r="2.12082" transform="matrix(-0.0091599 0.999958 0.999958 0.0091599 210.189 162.595)" fill="#2CF3A2"/>
<circle cx="244.585" cy="185.793" r="2.32992" transform="rotate(165.525 244.585 185.793)" fill="#2CF3A2"/>
<circle cx="223.906" cy="191.132" r="3.88319" transform="rotate(165.525 223.906 191.132)" fill="#2CF3A2"/>
<circle r="1.16496" transform="matrix(-0.968256 0.24996 0.24996 0.968256 231.209 210.101)" fill="#2CF3A2"/>
<circle r="1.16496" transform="matrix(-0.968256 0.24996 0.24996 0.968256 233.367 196.71)" fill="#2CF3A2"/>
<circle cx="259.573" cy="171.252" r="2.32992" transform="rotate(105.525 259.573 171.252)" fill="#2CF3A2"/>
<circle cx="253.857" cy="191.83" r="3.88319" transform="rotate(105.525 253.857 191.83)" fill="#2CF3A2"/>
<circle r="1.16496" transform="matrix(-0.267656 0.963515 0.963515 0.267656 273.936 194.99)" fill="#2CF3A2"/>
<circle r="1.16496" transform="matrix(-0.267656 0.963515 0.963515 0.267656 263.419 186.426)" fill="#2CF3A2"/>
<circle cx="207.268" cy="103.977" r="4.24164" transform="rotate(66.199 207.268 103.977)" fill="#2CF3A2"/>
<circle cx="222.959" cy="139.552" r="7.0694" transform="rotate(66.199 222.959 139.552)" fill="#2CF3A2"/>
<circle r="2.12082" transform="matrix(0.403561 0.914953 0.914953 -0.403561 254.882 120.835)" fill="#2CF3A2"/>
<circle r="2.12082" transform="matrix(0.403561 0.914953 0.914953 -0.403561 230.189 120.909)" fill="#2CF3A2"/>
<circle cx="288.391" cy="172.693" r="4.24164" transform="rotate(-105.248 288.391 172.693)" fill="#2CF3A2"/>
<circle cx="278.165" cy="135.18" r="7.0694" transform="rotate(-105.248 278.165 135.18)" fill="#2CF3A2"/>
<circle r="2.12082" transform="matrix(-0.263004 -0.964795 -0.964795 0.263004 243.814 148.941)" fill="#2CF3A2"/>
<circle r="2.12082" transform="matrix(-0.263004 -0.964795 -0.964795 0.263004 268.242 152.54)" fill="#2CF3A2"/>
<circle cx="212.711" cy="30.4576" r="4.24164" transform="rotate(90.5248 212.711 30.4576)" fill="#2CF3A2"/>
<circle cx="212.355" cy="69.3378" r="7.0694" transform="rotate(90.5248 212.355 69.3378)" fill="#2CF3A2"/>
<circle r="2.12082" transform="matrix(-0.0091599 0.999958 0.999958 0.0091599 249.153 65.4331)" fill="#2CF3A2"/>
<circle r="2.12082" transform="matrix(-0.0091599 0.999958 0.999958 0.0091599 226.622 55.329)" fill="#2CF3A2"/>
<circle cx="261.018" cy="78.5273" r="2.32992" transform="rotate(165.525 261.018 78.5273)" fill="#2CF3A2"/>
<circle cx="240.339" cy="83.8658" r="3.88319" transform="rotate(165.525 240.339 83.8658)" fill="#2CF3A2"/>
<circle r="1.16496" transform="matrix(-0.968256 0.24996 0.24996 0.968256 247.642 102.835)" fill="#2CF3A2"/>
<circle r="1.16496" transform="matrix(-0.968256 0.24996 0.24996 0.968256 249.8 89.4443)" fill="#2CF3A2"/>
<circle cx="276.006" cy="63.9859" r="2.32992" transform="rotate(105.525 276.006 63.9859)" fill="#2CF3A2"/>
<circle cx="270.29" cy="84.5641" r="3.88319" transform="rotate(105.525 270.29 84.5641)" fill="#2CF3A2"/>
<circle r="1.16496" transform="matrix(-0.267656 0.963515 0.963515 0.267656 290.369 87.7239)" fill="#2CF3A2"/>
<circle r="1.16496" transform="matrix(-0.267656 0.963515 0.963515 0.267656 279.852 79.1598)" fill="#2CF3A2"/>
<circle cx="223.701" cy="-3.28926" r="4.24164" transform="rotate(66.199 223.701 -3.28926)" fill="#2CF3A2"/>
<circle cx="239.392" cy="32.2856" r="7.0694" transform="rotate(66.199 239.392 32.2856)" fill="#2CF3A2"/>
<circle r="2.12082" transform="matrix(0.403561 0.914953 0.914953 -0.403561 271.315 13.5695)" fill="#2CF3A2"/>
<circle r="2.12082" transform="matrix(0.403561 0.914953 0.914953 -0.403561 246.622 13.6435)" fill="#2CF3A2"/>
<circle cx="304.824" cy="65.4273" r="4.24164" transform="rotate(-105.248 304.824 65.4273)" fill="#2CF3A2"/>
<circle cx="294.598" cy="27.9143" r="7.0694" transform="rotate(-105.248 294.598 27.9143)" fill="#2CF3A2"/>
<circle r="2.12082" transform="matrix(-0.263004 -0.964795 -0.964795 0.263004 260.247 41.6748)" fill="#2CF3A2"/>
<circle r="2.12082" transform="matrix(-0.263004 -0.964795 -0.964795 0.263004 284.675 45.274)" fill="#2CF3A2"/>
<circle cx="419.037" cy="300.792" r="11.184" transform="rotate(133.183 419.037 300.792)" fill="#2CF3A2"/>
<circle cx="348.879" cy="375.547" r="18.6399" transform="rotate(133.183 348.879 375.547)" fill="#2CF3A2"/>
<circle cx="500.642" cy="254.991" r="11.184" transform="rotate(108.857 500.642 254.991)" fill="#2CF3A2"/>
<circle cx="467.507" cy="352.008" r="18.6399" transform="rotate(108.857 467.507 352.008)" fill="#2CF3A2"/>
<circle r="5.59198" transform="matrix(-0.32321 0.946327 0.946327 0.32321 514.835 328.778)" fill="#2CF3A2"/>
<circle cx="23.2597" cy="-15.868" r="11.7104" transform="rotate(133.183 23.2597 -15.868)" fill="#2CF3A2"/>
<circle r="3.51313" transform="matrix(-0.68433 0.729173 0.729173 0.68433 72.4703 20.6805)" fill="#2CF3A2"/>
<circle cx="72.2267" cy="49.9514" r="3.8595" transform="rotate(-151.817 72.2267 49.9514)" fill="#2CF3A2"/>
<circle cx="41.0424" cy="33.2423" r="6.43249" transform="rotate(-151.817 41.0424 33.2423)" fill="#2CF3A2"/>
<circle r="1.92975" transform="matrix(-0.881444 -0.472288 -0.472288 0.881444 28.6467 64.5487)" fill="#2CF3A2"/>
<circle r="1.92975" transform="matrix(-0.881444 -0.472288 -0.472288 0.881444 46.3061 50.6582)" fill="#2CF3A2"/>
<circle cx="106.807" cy="49.0607" r="3.8595" transform="rotate(148.183 106.807 49.0607)" fill="#2CF3A2"/>
<circle cx="76.745" cy="67.7126" r="6.43249" transform="rotate(148.183 76.745 67.7126)" fill="#2CF3A2"/>
<circle r="1.92975" transform="matrix(-0.849736 0.527209 0.527209 0.849736 97.6592 94.1006)" fill="#2CF3A2"/>
<circle r="1.92975" transform="matrix(-0.849736 0.527209 0.527209 0.849736 94.4594 71.8618)" fill="#2CF3A2"/>
<circle cx="140.295" cy="83.1634" r="7.02626" transform="rotate(-62.5903 140.295 83.1634)" fill="#2CF3A2"/>
<circle cx="169.945" cy="25.9863" r="11.7104" transform="rotate(-62.5903 169.945 25.9863)" fill="#2CF3A2"/>
<circle r="3.51313" transform="matrix(0.460351 -0.887737 -0.887737 -0.460351 112.652 4.19104)" fill="#2CF3A2"/>
<circle r="3.51313" transform="matrix(0.460351 -0.887737 -0.887737 -0.460351 138.372 35.9962)" fill="#2CF3A2"/>
</g>
</g>
</g>
<defs>
<linearGradient id="paint0_linear" x1="384.106" y1="0" x2="384.106" y2="364" gradientUnits="userSpaceOnUse">
<stop stop-color="#242D70"/>
<stop offset="1" stop-color="#2CF3A2"/>
</linearGradient>
</defs>
</svg>
