<svg width="180" height="180" viewBox="0 0 180 180" fill="none" xmlns="http://www.w3.org/2000/svg">
<circle cx="90" cy="90" r="90" fill="#F4F6FF"/>
<g clip-path="url(#clip0)">
<path d="M141.662 73.9141C142.78 87.7865 138.241 100.816 129.979 110.718L129.931 110.774L110.79 137.742L110.762 137.79C109.682 139.59 108.317 141.191 106.716 142.537L106.668 142.575C103.759 145.02 100.092 146.611 96.0272 146.943C92.8149 147.199 89.7163 146.649 86.9589 145.446C86.7978 145.38 86.6368 145.304 86.4757 145.219C83.6424 143.911 81.1788 141.902 79.3215 139.401L79.3026 139.372L56.4283 115.721C47.2179 107.316 41.0398 95.5471 39.9596 82.139C37.6854 54.0436 58.6172 29.4352 86.7031 27.1706C114.789 24.8964 139.397 45.8282 141.662 73.9141Z" fill="#2CF3A2"/>
<path d="M114.486 72.0853C114.126 72.0853 113.766 72.1043 113.406 72.1327C109.634 72.4359 106.375 74.3311 104.195 77.079L104.176 77.0601C103.987 77.2117 99.41 80.9925 99.7227 95.0449H99.7606V95.2155C100.045 98.7025 102.973 101.356 106.412 101.356C106.593 101.356 106.773 101.346 106.953 101.337L107.123 101.308V101.346C121.052 99.3848 124.037 94.2679 124.16 94.05L124.141 94.0405C126.501 91.4441 127.837 87.9192 127.534 84.1573C127.249 80.6608 125.629 77.4865 122.957 75.2218C120.569 73.1845 117.594 72.0853 114.486 72.0853Z" fill="#3ADBA5"/>
<path d="M67.7044 75.8661C67.3538 75.8661 67.0032 75.8756 66.6526 75.9135C63.156 76.1977 59.9912 77.8276 57.717 80.4997C55.4428 83.1718 54.3531 86.5641 54.6374 90.0512C54.9217 93.5382 56.542 96.7126 59.2142 98.9867C59.3279 99.0815 59.451 99.1668 59.5742 99.2615L59.5553 99.2805C59.7069 99.4605 63.2413 103.753 76.1946 103.753C76.6399 103.753 77.0853 103.744 77.5401 103.734V103.706L77.7107 103.696C81.3778 103.402 84.1257 100.171 83.832 96.5041L83.8035 96.3336H83.8414C82.0032 83.2855 77.3127 79.7985 76.6494 79.3721L76.6399 79.3626L76.5831 79.3058L76.5357 79.2773C74.1194 77.0884 70.9545 75.8661 67.7044 75.8661Z" fill="#3ADBA5"/>
<path d="M127.534 78.4719C127.837 82.2337 126.501 85.7587 124.141 88.355L124.16 88.3645C124.037 88.5824 121.052 93.6993 107.123 95.6607V95.6228L106.953 95.6513C106.773 95.6607 106.593 95.6702 106.412 95.6702C102.973 95.6702 100.045 93.017 99.7606 89.53V89.3594H99.7227C99.41 75.307 103.987 71.5262 104.176 71.3746L104.195 71.3935C106.375 68.6456 109.634 66.7505 113.406 66.4472C116.893 66.163 120.294 67.2621 122.957 69.5363C125.629 71.801 127.249 74.9753 127.534 78.4719Z" fill="#242D70"/>
<path d="M83.832 90.8187C84.1257 94.4858 81.3778 97.717 77.7107 98.0107L77.5401 98.0202V98.0486C77.0853 98.0581 76.6399 98.0676 76.1946 98.0676C63.2413 98.0676 59.7069 93.7751 59.5553 93.5951L59.5742 93.5761C59.451 93.4813 59.3279 93.3961 59.2142 93.3013C56.542 91.0271 54.9217 87.8528 54.6374 84.3657C54.3531 80.8787 55.4428 77.4864 57.717 74.8143C59.9912 72.1421 63.156 70.5123 66.6526 70.228C70.2628 69.9343 73.8541 71.1661 76.5357 73.5919L76.5831 73.6203L76.6399 73.6772L76.6494 73.6866C77.3127 74.1131 82.0032 77.6001 83.8414 90.6481H83.8035L83.832 90.8187Z" fill="#242D70"/>
<path d="M41.0682 146.943C40.5565 146.981 40.0449 147 39.5426 147.01C40.0449 147 40.5565 146.981 41.0682 146.943ZM32 145.446C32.2085 145.541 32.4264 145.626 32.6349 145.711C32.4264 145.626 32.2085 145.531 32 145.446Z" fill="#FAE5F6"/>
<path d="M90.825 27C89.7164 27 88.6077 27.0379 87.4801 27.1137C87.2243 27.1327 86.9589 27.1516 86.7031 27.1706C60.048 29.3215 39.8269 51.5989 39.789 77.8844C39.789 79.2868 39.8459 80.7081 39.9596 82.139C41.0398 95.5471 47.2179 107.316 56.4283 115.721L79.3026 139.372L79.3215 139.401C81.1788 141.902 83.6425 143.911 86.4757 145.219C86.6368 145.304 86.7979 145.38 86.9589 145.446C87.1674 145.541 87.3853 145.626 87.5938 145.711C89.7353 146.555 92.0663 147.009 94.4826 147.009C94.4921 147.009 94.4921 147.009 94.5016 147.009C95.0038 147.009 95.5155 146.991 96.0272 146.943C96.6241 146.896 97.2116 146.81 97.7896 146.706C96.3304 146.45 94.9185 146.024 93.5919 145.446C93.4308 145.38 93.2697 145.304 93.1087 145.219C90.2754 143.911 87.8117 141.902 85.9545 139.401L85.9356 139.372L63.0613 115.721C53.8509 107.316 47.6728 95.5471 46.5925 82.139C44.3184 54.0436 65.2502 29.4352 93.3361 27.1706C93.6488 27.1421 93.952 27.1421 94.2647 27.1232C93.1276 27.0379 91.9811 27 90.825 27Z" fill="#3ADBA5"/>
</g>
<defs>
<clipPath id="clip0">
<rect x="32" y="27" width="109.833" height="120" fill="white"/>
</clipPath>
</defs>
</svg>
