<svg width="51" height="61" viewBox="0 0 51 61" fill="none" xmlns="http://www.w3.org/2000/svg">
<path d="M50.9532 24.6358C51.1826 31.5847 48.6086 37.9814 44.2507 42.7216L44.2252 42.7471L34.0397 55.7529L34.0228 55.7784C33.4451 56.6534 32.723 57.4179 31.8905 58.055L31.865 58.072C30.3529 59.2188 28.4925 59.9324 26.4537 60.0004C24.8482 60.0513 23.3106 59.7031 21.9684 59.0404C21.8919 59.0065 21.807 58.964 21.7305 58.913C20.3458 58.1909 19.165 57.1291 18.2986 55.8378L18.2901 55.8208L7.44198 43.4861C3.04158 39.0688 0.238242 33.0543 0.0173727 26.3348C-0.458346 12.2671 10.5681 0.484589 24.6358 0.0173651C38.7035 -0.458353 50.486 10.5681 50.9532 24.6358Z" fill="#2CF3A2"/>
<g opacity="0.1">
<path opacity="0.1" d="M43.6642 29.4181C43.7236 31.304 42.9761 33.0285 41.7358 34.2687L41.7443 34.2772C41.6763 34.3792 40.0708 36.8682 33.0709 37.5138V37.4968C33.0454 37.4968 33.0115 37.5053 32.986 37.5053C32.8925 37.5053 32.8076 37.5053 32.7141 37.5053C30.9982 37.4204 29.5965 36.0272 29.537 34.2857C29.537 34.2602 29.537 34.2263 29.537 34.2008H29.52C29.6984 27.1839 32.0685 25.4 32.1705 25.332L32.179 25.3405C33.3343 24.0238 34.9993 23.1488 36.8937 23.0893C38.6436 23.0299 40.3087 23.6585 41.5829 24.8563C42.8741 26.0371 43.6047 27.6596 43.6642 29.4181Z" fill="#D002AB"/>
<path opacity="0.1" d="M21.5687 34.5406C21.6282 36.3755 20.1841 37.9216 18.3406 37.981C18.3152 37.981 18.2812 37.981 18.2557 37.981V37.998C18.0263 37.9895 17.8055 37.9895 17.5846 37.9725C11.1199 37.6667 9.4634 35.441 9.38695 35.3476L9.39544 35.3391C9.33598 35.2881 9.27651 35.2457 9.22554 35.1947C7.9428 33.9969 7.21223 32.3743 7.15277 30.6244C7.0933 28.8744 7.71344 27.2094 8.91123 25.9352C10.109 24.6524 11.7231 23.9134 13.4815 23.8539C15.291 23.7944 17.0494 24.491 18.3322 25.7653L18.3576 25.7823L18.3831 25.8077L18.3916 25.8162C18.7144 26.0456 20.9741 27.8975 21.5772 34.4471H21.5602C21.5602 34.4811 21.5602 34.5151 21.5687 34.5406Z" fill="#D002AB"/>
<path opacity="0.1" d="M25.0436 59.066C23.6589 58.3439 22.4781 57.2821 21.6116 55.9908L21.6031 55.9738L10.7465 43.6391C6.34613 39.2302 3.54279 33.2073 3.32192 26.4963C2.85469 12.4201 13.8812 0.637573 27.9488 0.17035C28.1018 0.161855 28.2547 0.17035 28.4161 0.17035C27.1758 0.0259353 25.9185 -0.0250346 24.6358 0.0174403C10.5681 0.484664 -0.458346 12.2672 0.0173727 26.3349C0.238242 33.0544 3.04158 39.0688 7.44198 43.4777L18.2986 55.8209L18.3071 55.8379C19.1735 57.1292 20.3543 58.191 21.739 58.9131C21.8155 58.9556 21.8919 58.998 21.9769 59.0405C23.3276 59.7031 24.8567 60.0514 26.4622 60.0005C26.7595 59.992 27.0569 59.958 27.3457 59.924C26.6236 59.7626 25.927 59.5162 25.2814 59.1934C25.1965 59.1595 25.12 59.117 25.0436 59.066Z" fill="#D002AB"/>
</g>
<path d="M43.8001 26.5808C43.8595 28.4667 43.112 30.1911 41.8717 31.4314H41.8802C41.8123 31.5333 40.2067 34.0224 33.2069 34.668V34.651C33.1814 34.651 33.1474 34.6595 33.1219 34.6595C33.0285 34.6595 32.9435 34.6595 32.8501 34.6595C31.1341 34.5745 29.7324 33.1814 29.6729 31.4399C29.6729 31.4144 29.6729 31.3804 29.6729 31.3549H29.656C29.8344 24.3381 32.2044 22.5542 32.3064 22.4862L32.3149 22.4947C33.4702 21.178 35.1352 20.303 37.0296 20.2435C38.7796 20.1841 40.4446 20.8127 41.7188 22.0105C43.0016 23.2083 43.7406 24.8223 43.8001 26.5808Z" fill="#242D70"/>
<path d="M21.6962 31.7032C21.7556 33.5382 20.3115 35.0842 18.4681 35.1437C18.4426 35.1437 18.4086 35.1437 18.3831 35.1437V35.1607C18.1538 35.1522 17.9329 35.1522 17.712 35.1352C11.2473 34.8294 9.59083 32.6037 9.51437 32.5103L9.52287 32.5018C9.4634 32.4508 9.40394 32.4083 9.35297 32.3574C8.07023 31.1596 7.33966 29.537 7.28019 27.7871C7.22073 26.0371 7.84086 24.3721 9.03865 23.0978C10.2364 21.8236 11.8505 21.076 13.609 21.0166C15.4184 20.9571 17.1768 21.6537 18.4596 22.9279L18.4851 22.9449L18.5106 22.9704L18.519 22.9789C18.8419 23.2083 21.1015 25.0602 21.7047 31.6098H21.6877C21.6962 31.6523 21.6962 31.6778 21.6962 31.7032Z" fill="#242D70"/>
</svg>
