<?xml version="1.0" encoding="utf-8"?>
<!-- Generator: Adobe Illustrator 24.0.1, SVG Export Plug-In . SVG Version: 6.00 Build 0)  -->
<svg id="max" version="1.1" xmlns="http://www.w3.org/2000/svg" xmlns:xlink="http://www.w3.org/1999/xlink" x="0px" y="0px"
	 viewBox="0 0 800 660" style="enable-background:new 0 0 800 660;" xml:space="preserve">
<style>
.st0{opacity:0.1;}
.st1{fill:#242D70;}
.st2{fill:#FEFEFE;}
.st3{fill:#1FDED4;}
.st4{fill:#D002AB;}
.st5{fill:#C8DBD9;}
.st6{opacity:0.2;}
.st7{fill:#2CF3A2;}
.st8{opacity:0.1;fill:#D002AB;}

@keyframes nave{
	0%{ transform: translateY(-0.7rem) rotate(-5deg);}
	50%{ transform: translateY(0px) rotate(10deg);}
	100%{ transform: translateY(-0.7rem) rotate(-5deg);}
}

#max{
	animation: nave 4s ease infinite;
}

@keyframes olhos{
	0%{ height: 2px;}
	50%{ height: 100px;}
	75%{ height: 2px;}
	100%{ height: 100px; }
}

#olhos{
	animation: olhos 4s linear infinite;
}

@keyframes fumaca{
    0%{ opacity: 0.3;}
    50%{ opacity: 1; }
    100%{ opacity: 0.3; }
}

#fumaca{
    animation: fumaca 4s linear infinite;
}

</style>
<g id="fumaca">
	<g>
		<g class="st0">
			<g>
				<g>
					<circle class="st1" cx="328" cy="529.74" r="61.44"/>
				</g>
				<g>
					<circle class="st1" cx="529.8" cy="504.93" r="61.44"/>
				</g>
				<g>
					<circle class="st1" cx="441.87" cy="518.46" r="86.25"/>
				</g>
			</g>
		</g>
		<g>
			<circle class="st2" cx="328" cy="498.78" r="61.44"/>
			<circle class="st2" cx="529.8" cy="473.97" r="61.44"/>
			<circle class="st2" cx="441.87" cy="487.5" r="86.25"/>
		</g>
	</g>
</g>
<g id="nave">
	<g>
		<path class="st3" d="M738.78,284.36c19.45,0,35.22,15.77,35.22,35.22c0,13.98-8.15,26.05-19.96,31.75
			c-4.61,2.23-9.79,3.47-15.26,3.47c-19.45,0-35.22-15.77-35.22-35.22c0-19.28,15.5-34.95,34.71-35.21
			C738.44,284.36,738.6,284.36,738.78,284.36z"/>
		<path class="st1" d="M754.04,351.33l0.07,0.14l-133.77,66.74c22.94-13.72,38.3-38.82,38.3-67.49c0-39.97-29.81-72.96-68.41-77.95
			c-0.15-0.03-0.31-0.05-0.45-0.06l148.49,11.65v0.01c-19.21,0.27-34.71,15.94-34.71,35.21c0,19.45,15.77,35.22,35.22,35.22
			C744.25,354.8,749.43,353.56,754.04,351.33z"/>
		<path class="st1" d="M580.02,429.33c4.88,0,9.67-0.45,14.3-1.3c-153.14,85.47-360.4,54.38-360.4,54.38l-0.02-0.23
			c25.37-1.94,47.35-15.93,60.28-36.24c30.25,20.15,66.57,31.88,105.65,31.88c54.82,0,104.25-23.1,139.06-60.11
			C550.86,425.08,564.94,429.33,580.02,429.33z"/>
		<path class="st1" d="M212.35,480.9l-154.94-24l0.02-0.17c1.13,0.11,2.29,0.17,3.45,0.17c19.45,0,35.22-15.77,35.22-35.22
			c0-19.45-15.77-35.22-35.22-35.22c-3.34,0-6.57,0.47-9.64,1.34l139.08-53.11c-24.5,13.31-41.13,39.28-41.13,69.13
			C149.19,441.94,176.33,473.72,212.35,480.9z"/>
		<path class="st3" d="M60.88,386.45c19.45,0,35.22,15.77,35.22,35.22c0,19.45-15.77,35.22-35.22,35.22c-1.16,0-2.32-0.06-3.45-0.17
			c-17.83-1.73-31.77-16.76-31.77-35.05c0-13.93,8.1-25.97,19.84-31.69l0.05-0.02l5.64-2.15l0.06-0.02
			C54.31,386.92,57.54,386.45,60.88,386.45z"/>
		<path class="st3" d="M590.22,272.77c-0.15-0.04-0.3-0.05-0.45-0.06c-0.73-0.09-1.47-0.17-2.2-0.24c0.01,0.16,0,0.32-0.06,0.48
			v0.01c-0.08,0.34-0.27,0.69-0.57,1.05c-0.01,0.02-0.02,0.03-0.03,0.05c-4.08,4.92-27.02,12.26-61.62,20.23
			c-27.86,6.44-63.28,13.29-102.51,19.69h-0.03c-6.87,1.12-13.86,2.22-20.95,3.3c-12.41,1.91-24.57,3.66-36.34,5.26
			c-40.17,5.46-75.97,9.14-102.94,10.73c-24.29,1.44-41.44,1.2-48.2-0.95c-1.96-0.61-3.05-1.4-3.19-2.34
			c-0.14-0.88,0.55-1.87,2-2.94c-0.01-0.04-0.02-0.06-0.03-0.09c-0.03-0.12-0.05-0.23-0.06-0.35c-1.16,0.21-2.29,0.46-3.42,0.72
			h-0.01l-19.26,7.35l-0.04,0.02c-24.5,13.31-41.13,39.28-41.13,69.13c0,38.13,27.13,69.92,63.15,77.09l0.03,0.01
			c5,0.99,10.15,1.51,15.43,1.51c27.92,0,52.44-14.55,66.38-36.48c30.25,20.16,66.58,31.88,105.65,31.88
			c54.83,0,104.25-23.1,139.06-60.11c11.96,7.37,26.05,11.61,41.13,11.61c4.88,0,9.66-0.45,14.3-1.29
			c5.29-0.97,10.4-2.48,15.25-4.46l0.02-0.01l10.74-5.36c22.94-13.71,38.29-38.81,38.29-67.49
			C658.63,310.75,628.82,277.76,590.22,272.77z"/>
		<g class="st0">
			<g>
				<g>
					<path class="st4" d="M620.34,397.79l-10.74,5.36l-0.02,0.01c-4.86,1.98-9.96,3.48-15.25,4.45c-4.64,0.85-9.42,1.3-14.3,1.3
						c-15.08,0-29.17-4.25-41.13-11.62c-34.81,37.01-84.24,60.11-139.06,60.11c-39.07,0-75.4-11.73-105.65-31.88
						C280.24,447.45,255.73,462,227.8,462c-5.28,0-10.43-0.52-15.43-1.51l-0.03-0.01c-32.74-6.52-58.14-33.39-62.49-66.87
						c-0.43,3.34-0.66,6.74-0.66,10.2c0,38.13,27.14,69.91,63.15,77.09l0.03,0.01c4.99,0.99,10.15,1.51,15.43,1.51
						c27.92,0,52.43-14.55,66.38-36.48c30.25,20.15,66.57,31.88,105.65,31.88c54.82,0,104.25-23.1,139.06-60.11
						c11.97,7.37,26.05,11.62,41.13,11.62c4.88,0,9.67-0.45,14.3-1.3c5.29-0.97,10.39-2.47,15.25-4.45l0.02-0.01l10.74-5.36
						c22.94-13.72,38.3-38.82,38.3-67.49c0-3.45-0.24-6.84-0.67-10.17C654.8,364.89,640.5,385.74,620.34,397.79z"/>
				</g>
			</g>
		</g>
		<g class="st0">
			<path class="st4" d="M60.88,446.69c-1.16,0-2.32-0.06-3.45-0.17c-16.14-1.56-29.09-14.03-31.4-29.94
				c-0.24,1.67-0.37,3.37-0.37,5.11c0,18.28,13.95,33.32,31.77,35.05c1.13,0.11,2.29,0.17,3.45,0.17
				c19.45,0,35.22-15.77,35.22-35.22c0-1.73-0.13-3.44-0.37-5.1C93.26,433.6,78.6,446.69,60.88,446.69z"/>
		</g>
		<g class="st0">
			<g>
				<g>
					<path class="st4" d="M754.04,341.12c-4.61,2.23-9.79,3.47-15.26,3.47c-17.72,0-32.38-13.09-34.85-30.12
						c-0.24,1.67-0.37,3.37-0.37,5.11c0,19.45,15.77,35.22,35.22,35.22c5.47,0,10.65-1.25,15.26-3.47
						c11.81-5.7,19.96-17.77,19.96-31.75c0-1.73-0.13-3.43-0.37-5.09C771.91,326.26,764.38,336.13,754.04,341.12z"/>
				</g>
			</g>
		</g>
	</g>
	<g>
		<path class="st5" d="M577.11,268.71c-24.73-2.64-91.14,2.81-169.76,14.45c-3.54,0.52-7.1,1.05-10.68,1.6
			c-6.91,1.05-13.73,2.14-20.43,3.23c-2.3,0.37-4.58,0.74-6.86,1.13c-6.56,1.08-13.01,2.19-19.31,3.3
			c-69.82,12.28-123.4,25.62-136.2,34.01c-0.27,0.16-0.51,0.34-0.74,0.5c0.01,0.03,0.02,0.06,0.03,0.09c-1.45,1.07-2.14,2.06-2,2.94
			c0.14,0.94,1.23,1.72,3.19,2.34c6.76,2.15,23.91,2.39,48.2,0.95c26.97-1.59,62.77-5.26,102.94-10.73
			c11.77-1.6,23.93-3.36,36.34-5.26c7.09-1.08,14.08-2.18,20.95-3.3h0.03c39.23-6.4,74.66-13.26,102.51-19.69
			c34.6-7.98,57.54-15.31,61.62-20.23c0.01-0.02,0.02-0.03,0.03-0.05c0.4-0.55,0.57-1.06,0.5-1.55c-0.26-1.68-3.36-2.86-8.89-3.58
			c-0.32-0.04-0.64-0.07-0.98-0.11C577.42,268.75,577.27,268.73,577.11,268.71z"/>
		<path class="st2" d="M350.06,292.42c6.31-1.11,12.75-2.22,19.31-3.3c2.27-0.38,4.56-0.76,6.86-1.13
			c6.7-1.09,13.52-2.17,20.43-3.23c3.58-0.55,7.14-1.08,10.68-1.6c78.63-11.64,145.03-17.09,169.76-14.45
			c0.16,0.02,0.31,0.04,0.46,0.05c0.34,0.04,0.66,0.07,0.98,0.11c0.16,0.02,0.32,0.04,0.48,0.06c0.94,0.12,1.82,0.26,2.61,0.41
			c0.23,0.05,0.47,0.09,0.69,0.14c1.38,0.28,2.48,0.62,3.32,1.01c0.27,0.12,0.5,0.24,0.71,0.37c0.1,0.07,0.22,0.15,0.31,0.22
			c0.09,0.07,0.18,0.14,0.27,0.21c0.08,0.07,0.15,0.15,0.21,0.23c0.07,0.07,0.12,0.15,0.17,0.22c0.05,0.08,0.1,0.17,0.13,0.25
			c-1.04-14.85-1.36-29.57-5.73-43.27l-0.25,0.08c-0.24-0.73-0.47-1.47-0.71-2.19c-18.33-55.05-61.91-99.62-116.54-119.21
			l-0.26-0.09l0.09-0.24c-1.61-0.58-3.24-1.13-4.87-1.67c0,0.01-0.01,0.01-0.01,0.02l-0.49-0.18c-18.54-6-38.31-9.24-58.85-9.24
			c-105.44,0-190.91,85.47-190.91,190.91c0,13.6,1.42,26.87,4.13,39.67c0.27-0.06,0.54-0.11,0.81-0.16
			C226.67,318.04,280.25,304.7,350.06,292.42z"/>
		<g class="st6">
			<path class="st1" d="M324.31,112.55c-83.77,20.19-146.02,95.61-146.02,185.59c0,13.6,1.42,26.87,4.13,39.67
				c0.34-0.07,0.12,2.45,0.46,2.39c4.71-3.03,15.49-9.32,30.01-13.4c-2.61-12.56-3.98-25.56-3.98-38.87
				C208.92,209.32,256.43,141.82,324.31,112.55z"/>
			<path class="st2" d="M213.05,326.58c0.34-0.07,0.66-0.13,1-0.19c0.93-0.6,2.08-1.22,3.42-1.87c-1.57,0.42-3.1,0.85-4.58,1.26
				C212.95,326.05,212.99,326.32,213.05,326.58z"/>
			<path class="st2" d="M350.43,292.67c-0.09-0.05-0.16-0.12-0.24-0.18c-0.08,0.09-0.15,0.17-0.23,0.26
				C350.12,292.72,350.27,292.7,350.43,292.67z"/>
		</g>
	</g>
	<path class="st3" d="M514.44,56.33h-0.02v0.01c-22.75,9.44-41.09,27.9-50.36,50.72l-0.01,0.01c-1.61-0.58-3.24-1.13-4.87-1.67
		c10.27-23.76,30.16-42.18,54.59-50.59C513.93,55.34,514.15,55.85,514.44,56.33z"/>
	<circle class="st1" cx="520.81" cy="52.61" r="7.15"/>
</g>
<g id="Alien">
	<g>
		<path class="st7" d="M454.13,202.79c-2.44-30.26-28.95-52.81-59.21-50.36c-30.26,2.44-52.81,28.95-50.36,59.22
			c1.16,14.45,7.82,27.13,17.74,36.18l24.65,25.48l0.02,0.03c2,2.7,4.66,4.86,7.71,6.27c-1.62,1.86-3.57,4.21-5.56,6.9
			c-0.62,0.84-1.25,1.7-1.87,2.61c-0.04-0.03-0.09-0.04-0.13-0.06l-4.03-1.56h-0.01l-14.74-5.69l-1.13-8.48h-0.01
			c-0.08-0.84-0.67-1.57-1.54-1.78c-1.1-0.27-2.21,0.42-2.46,1.51c-0.07,0.28-0.07,0.55-0.03,0.81v0.02l0.95,7.11l-6.48-3.11
			c-0.75-0.39-1.68-0.29-2.33,0.33c-0.83,0.77-0.87,2.06-0.09,2.88c0.19,0.2,0.42,0.36,0.65,0.46v0.01l5.75,2.77
			c-0.05,0.1-0.09,0.2-0.13,0.31c-0.91,2.35,0.03,4.94,2.1,6.21h0.01c0.26,0.15,0.52,0.29,0.81,0.4l17.56,6.78
			c-0.86,1.7-1.61,3.44-2.26,5.19c-0.04,0.12-0.08,0.23-0.12,0.35c-0.54,1.55-0.98,3.1-1.3,4.65c-0.07,0.35-0.13,0.69-0.18,1.04
			c-0.22,1.44-0.34,2.92-0.34,4.43c0,2.43,0.3,4.78,0.87,7.03c11.77-1.6,23.92-3.36,36.34-5.26c7.09-1.08,14.08-2.18,20.95-3.31
			c-0.05-0.98-0.15-1.95-0.3-2.9c-0.05-0.35-0.11-0.69-0.18-1.04c-0.32-1.54-0.76-3.09-1.3-4.65c-0.04-0.11-0.08-0.22-0.12-0.35
			c-2.99-8.27-8.84-16.28-13.28-21.6c-1.39-1.66-2.63-3.05-3.61-4.11l-0.01-0.01c-0.01-0.01-0.02-0.02-0.02-0.03
			c-0.23-0.24-0.45-0.48-0.64-0.68l0.05-0.04c1.73-1.45,3.2-3.18,4.36-5.11l0.03-0.05l20.62-29.06l0.05-0.06
			C450.44,231.78,455.33,217.74,454.13,202.79z"/>
		<g class="st0">
			<path class="st4" d="M401.82,279.62c-3.05-1.41-5.71-3.57-7.71-6.27l-0.02-0.03l-24.65-25.48c-9.92-9.06-16.58-21.74-17.74-36.18
				c-2.45-30.27,20.1-56.78,50.36-59.22c0.33-0.03,0.67-0.03,1-0.06c-2.67-0.18-5.39-0.17-8.15,0.06
				c-30.26,2.44-52.81,28.95-50.36,59.22c1.16,14.45,7.82,27.13,17.74,36.18l24.65,25.48l0.02,0.03c2,2.7,4.66,4.86,7.71,6.27
				c0.17,0.09,0.35,0.17,0.52,0.25c2.97,1.3,6.31,1.89,9.77,1.61c0.64-0.05,1.27-0.14,1.9-0.25c-1.57-0.28-3.09-0.74-4.52-1.36
				C402.16,279.79,401.99,279.71,401.82,279.62z"/>
		</g>
		<path class="st8" d="M366.16,273.34h0.01l1.11,8.28l1.05,0.2l-1.13-8.48h-0.01c-0.08-0.84-0.67-1.57-1.54-1.78
			c-0.34-0.08-0.67-0.06-0.98,0.02C365.5,271.8,366.08,272.52,366.16,273.34z"/>
	</g>
</g>
	<g id="olhos">
		<g class="st0">
			<path class="st4" d="M438.91,213.83c0.33,4.05-1.11,7.85-3.65,10.65l0.02,0.01c-0.13,0.23-3.35,5.75-18.36,7.86v-0.04
				c-0.06,0.01-0.12,0.02-0.18,0.03c-0.19,0.01-0.39,0.02-0.58,0.02c-3.71,0-6.86-2.86-7.17-6.62c0-0.06,0-0.12,0-0.18h-0.04
				c-0.34-15.14,4.59-19.21,4.8-19.38l0.02,0.02c2.35-2.96,5.86-5,9.92-5.33c3.76-0.31,7.42,0.88,10.29,3.33
				C436.85,206.64,438.6,210.06,438.91,213.83z"/>
			<path class="st4" d="M391.82,227.13c0.32,3.95-2.64,7.43-6.6,7.75c-0.06,0-0.12,0-0.18,0.01v0.03c-0.49,0.01-0.97,0.02-1.45,0.02
				c-13.96,0-17.76-4.62-17.93-4.82l0.02-0.02c-0.13-0.1-0.27-0.19-0.39-0.3c-2.88-2.45-4.62-5.87-4.93-9.63s0.87-7.41,3.32-10.29
				c2.45-2.88,5.86-4.64,9.63-4.94c3.89-0.32,7.76,1.01,10.65,3.62l0.05,0.03l0.06,0.06l0.01,0.01c0.71,0.46,5.77,4.22,7.75,18.27
				h-0.04C391.8,227.01,391.81,227.07,391.82,227.13z"/>
		</g>
		<path class="st1" d="M438.91,207.7c0.33,4.05-1.11,7.85-3.65,10.65l0.02,0.01c-0.13,0.23-3.35,5.75-18.36,7.86v-0.04
			c-0.06,0.01-0.12,0.02-0.18,0.03c-0.19,0.01-0.39,0.02-0.58,0.02c-3.71,0-6.86-2.86-7.17-6.62c0-0.06,0-0.12,0-0.18h-0.04
			c-0.34-15.14,4.59-19.21,4.8-19.38l0.02,0.02c2.35-2.96,5.86-5,9.92-5.33c3.76-0.31,7.42,0.88,10.29,3.33
			C436.85,200.52,438.6,203.94,438.91,207.7z"/>
		<path class="st1" d="M391.82,221.01c0.32,3.95-2.64,7.43-6.6,7.75c-0.06,0-0.12,0-0.18,0.01v0.03c-0.49,0.01-0.97,0.02-1.45,0.02
			c-13.96,0-17.76-4.62-17.93-4.82l0.02-0.02c-0.13-0.1-0.27-0.19-0.39-0.3c-2.88-2.45-4.62-5.87-4.93-9.63
			c-0.31-3.76,0.87-7.41,3.32-10.29c2.45-2.88,5.86-4.64,9.63-4.94c3.89-0.32,7.76,1.01,10.65,3.62l0.05,0.03l0.06,0.06l0.01,0.01
			c0.71,0.46,5.77,4.22,7.75,18.27h-0.04C391.8,220.88,391.81,220.95,391.82,221.01z"/>
	</g>
</svg>
