<svg width="749" height="749" viewBox="0 0 749 749" fill="none" xmlns="http://www.w3.org/2000/svg">
<path opacity="0.1" d="M374.511 748.979C167.686 748.979 0.0211792 581.314 0.0211792 374.489C0.0211792 167.665 167.686 0 374.511 0C581.335 0 749 167.665 749 374.489C749 581.314 581.335 748.979 374.511 748.979Z" fill="#FF00FF"/>
<path opacity="0.3" d="M374.511 724.204C181.369 724.204 24.7963 567.631 24.7963 374.489C24.7963 181.347 181.369 24.775 374.511 24.775C567.653 24.775 724.225 181.347 724.225 374.489C724.225 567.631 567.653 724.204 374.511 724.204Z" fill="#FF00FF"/>
<path d="M374.511 693.086C198.554 693.086 55.9136 550.446 55.9136 374.489C55.9136 198.533 198.554 55.8922 374.511 55.8922C550.467 55.8922 693.108 198.533 693.108 374.489C693.108 550.446 550.467 693.086 374.511 693.086Z" fill="#FA52FF"/>
<path d="M55.8925 374.489C55.8925 198.54 198.54 55.8922 374.489 55.8922C417.422 55.8922 458.381 64.398 495.756 79.7764H348.293C336.669 79.7764 327.251 89.1943 327.251 100.818C327.251 112.442 336.669 121.86 348.293 121.86H424.761C436.385 121.86 445.803 131.278 445.803 142.902C445.803 154.526 436.385 163.944 424.761 163.944H228.363C216.739 163.944 207.322 173.362 207.322 184.986C207.322 196.609 216.739 206.027 228.363 206.027H544.712C556.336 206.027 565.754 215.445 565.754 227.069C565.754 238.693 556.336 248.111 544.712 248.111H348.314C336.691 248.111 327.273 257.529 327.273 269.153C327.273 280.777 336.691 290.195 348.314 290.195H424.782C436.406 290.195 445.824 299.613 445.824 311.237C445.824 322.86 436.406 332.278 424.782 332.278H228.385C216.761 332.278 207.343 341.696 207.343 353.32C207.343 364.944 216.761 374.362 228.385 374.362H544.712C556.336 374.362 565.754 383.78 565.754 395.404C565.754 407.028 556.336 416.446 544.712 416.446H348.314C336.691 416.446 327.273 425.864 327.273 437.488C327.273 449.111 336.691 458.529 348.314 458.529H424.782C436.406 458.529 445.824 467.947 445.824 479.571C445.824 491.195 436.406 500.613 424.782 500.613H228.385C216.761 500.613 207.343 510.031 207.343 521.655C207.343 533.279 216.761 542.697 228.385 542.697H544.712C556.336 542.697 565.754 552.115 565.754 563.738C565.754 575.362 556.336 584.78 544.712 584.78H348.314C336.691 584.78 327.273 594.198 327.273 605.822C327.273 617.446 336.691 626.864 348.314 626.864H424.782C436.406 626.864 445.824 636.282 445.824 647.906C445.824 659.53 436.406 668.948 424.782 668.948H253.266C137.43 621.497 55.8925 507.528 55.8925 374.489Z" fill="url(#paint0_linear)"/>
<defs>
<linearGradient id="paint0_linear" x1="310.823" y1="55.8922" x2="310.823" y2="668.948" gradientUnits="userSpaceOnUse">
<stop stop-color="#FF00FF"/>
<stop offset="1" stop-color="#FF00FF" stop-opacity="0"/>
</linearGradient>
</defs>
</svg>
