<svg width="867" height="1095" viewBox="0 0 867 1095" fill="none" xmlns="http://www.w3.org/2000/svg">
<path opacity="0.1" d="M334.508 1094.98C169.104 1094.98 35.0169 960.896 35.0169 795.492C35.0169 630.087 169.104 496 334.508 496C499.913 496 634 630.087 634 795.492C634 960.896 499.913 1094.98 334.508 1094.98Z" fill="#008CFF"/>
<path opacity="0.3" d="M334.509 1075.17C180.047 1075.17 54.8304 949.953 54.8304 795.492C54.8304 641.03 180.047 515.813 334.509 515.813C488.97 515.813 614.187 641.03 614.187 795.492C614.187 949.953 488.97 1075.17 334.509 1075.17Z" fill="#008CFF"/>
<path d="M334.508 1050.28C193.79 1050.28 79.7159 936.209 79.7159 795.491C79.7159 654.773 193.79 540.699 334.508 540.699C475.227 540.699 589.301 654.773 589.301 795.491C589.301 936.209 475.227 1050.28 334.508 1050.28Z" fill="#31ACFF"/>
<path d="M154.339 615.322C253.847 515.813 415.17 515.813 514.678 615.322C538.953 639.596 557.308 667.569 569.742 697.408L486.349 614.015C479.767 607.434 469.114 607.434 462.549 614.015C455.968 620.597 455.968 631.25 462.549 637.815L505.773 681.072C512.354 687.654 512.354 698.307 505.773 704.872C499.191 711.454 488.538 711.454 481.973 704.872L370.912 593.812C364.33 587.23 353.677 587.23 347.112 593.812C340.531 600.394 340.531 611.047 347.112 617.612L525.993 796.526C532.575 803.108 532.575 813.761 525.993 820.326C519.411 826.891 508.758 826.908 502.193 820.326L391.133 709.266C384.551 702.684 373.898 702.684 367.333 709.266C360.751 715.848 360.751 726.501 367.333 733.066L410.573 776.306C417.155 782.888 417.155 793.541 410.573 800.106C403.991 806.687 393.338 806.687 386.773 800.106L275.713 689.045C269.131 682.463 258.478 682.463 251.913 689.045C245.331 695.627 245.331 706.28 251.913 712.845L430.76 891.76C437.342 898.342 437.342 908.995 430.76 915.56C424.178 922.141 413.525 922.141 406.96 915.56L295.899 804.499C289.318 797.917 278.664 797.917 272.1 804.499C265.518 811.081 265.518 821.734 272.1 828.299L315.34 871.539C321.922 878.121 321.922 888.774 315.34 895.339C308.758 901.921 298.105 901.921 291.54 895.339L180.479 784.279C173.898 777.697 163.244 777.697 156.68 784.279C150.098 790.86 150.098 801.514 156.68 808.078L335.526 986.976C342.108 993.558 342.108 1004.21 335.526 1010.78C328.944 1017.36 318.291 1017.36 311.726 1010.78L200.649 899.733C194.067 893.151 183.414 893.151 176.849 899.733C170.267 906.314 170.267 916.967 176.849 923.532L220.089 966.772C226.671 973.354 226.671 984.007 220.089 990.572C213.507 997.154 202.854 997.154 196.289 990.572L99.2919 893.575C60.7507 801.106 79.1052 690.555 154.339 615.322Z" fill="url(#paint0_linear)"/>
<path opacity="0.1" d="M684.507 557C583.719 557 502.014 475.295 502.014 374.507C502.014 273.719 583.719 192.014 684.507 192.014C785.295 192.014 867 273.719 867 374.507C867 475.295 785.295 557 684.507 557Z" fill="#15CC7D"/>
<path opacity="0.3" d="M684.507 544.927C590.387 544.927 514.087 468.627 514.087 374.507C514.087 280.387 590.387 204.088 684.507 204.088C778.627 204.088 854.927 280.387 854.927 374.507C854.927 468.627 778.627 544.927 684.507 544.927Z" fill="#15CC7D"/>
<path d="M684.507 529.763C598.762 529.763 529.251 460.253 529.251 374.507C529.251 288.762 598.762 219.251 684.507 219.251C770.253 219.251 839.763 288.762 839.763 374.507C839.763 460.253 770.253 529.763 684.507 529.763Z" fill="#2CF3A2"/>
<path d="M839.763 374.507C839.763 460.249 770.249 529.763 684.507 529.763C663.586 529.763 643.626 525.618 625.413 518.124H697.273C702.937 518.124 707.527 513.534 707.527 507.87C707.527 502.205 702.937 497.616 697.273 497.616H660.009C654.345 497.616 649.756 493.027 649.756 487.362C649.756 481.698 654.345 477.108 660.009 477.108H755.716C761.381 477.108 765.97 472.519 765.97 466.854C765.97 461.19 761.381 456.6 755.716 456.6H601.556C595.891 456.6 591.302 452.011 591.302 446.346C591.302 440.682 595.891 436.092 601.556 436.092H697.273C702.937 436.092 707.527 431.503 707.527 425.839C707.527 420.174 702.937 415.585 697.273 415.585H660.009C654.345 415.585 649.756 410.995 649.756 405.331C649.756 399.666 654.345 395.077 660.009 395.077H755.716C761.381 395.077 765.97 390.487 765.97 384.823C765.97 379.158 761.381 374.569 755.716 374.569H601.556C595.891 374.569 591.302 369.98 591.302 364.315C591.302 358.651 595.891 354.061 601.556 354.061H697.273C702.937 354.061 707.527 349.472 707.527 343.807C707.527 338.143 702.937 333.553 697.273 333.553H660.009C654.345 333.553 649.756 328.964 649.756 323.299C649.756 317.635 654.345 313.045 660.009 313.045H755.716C761.381 313.045 765.97 308.456 765.97 302.792C765.97 297.127 761.381 292.538 755.716 292.538H601.556C595.891 292.538 591.302 287.948 591.302 282.284C591.302 276.619 595.891 272.03 601.556 272.03H697.273C702.937 272.03 707.527 267.44 707.527 261.776C707.527 256.111 702.937 251.522 697.273 251.522H660.009C654.345 251.522 649.756 246.933 649.756 241.268C649.756 235.604 654.345 231.014 660.009 231.014H743.591C800.029 254.147 839.763 309.686 839.763 374.507Z" fill="url(#paint1_linear)"/>
<path opacity="0.1" d="M237 474C367.892 474 474 367.892 474 237C474 106.109 367.892 0 237 0C106.109 0 0 106.109 0 237C0 367.892 106.109 474 237 474Z" fill="#FBA733"/>
<path opacity="0.3" d="M237 458.313C359.228 458.313 458.313 359.228 458.313 237C458.313 114.772 359.228 15.6865 237 15.6865C114.772 15.6865 15.6866 114.772 15.6866 237C15.6866 359.228 114.772 458.313 237 458.313Z" fill="#FBA733"/>
<path d="M237 438.632C348.358 438.632 438.632 348.358 438.632 237C438.632 125.642 348.358 35.3684 237 35.3684C125.642 35.3684 35.3683 125.642 35.3683 237C35.3683 348.358 125.642 438.632 237 438.632Z" fill="#FBA733"/>
<path d="M379.573 379.573C458.313 300.832 458.313 173.168 379.573 94.4271C360.362 75.2166 338.236 60.691 314.614 50.8569L380.604 116.847C385.808 122.051 385.808 130.485 380.604 135.689C375.4 140.893 366.966 140.893 361.762 135.689L327.548 101.475C322.344 96.271 313.91 96.271 308.706 101.475C303.502 106.679 303.502 115.113 308.706 120.317L396.598 208.208C401.802 213.412 401.802 221.846 396.598 227.05C391.394 232.254 382.96 232.254 377.756 227.05L236.187 85.4809C230.983 80.2771 222.549 80.2771 217.345 85.4809C212.142 90.6847 212.142 99.1188 217.345 104.323L305.237 192.214C310.441 197.418 310.441 205.852 305.237 211.056C300.033 216.26 291.599 216.26 286.395 211.056L252.181 176.842C246.977 171.638 238.543 171.638 233.339 176.842C228.136 182.046 228.136 190.48 233.339 195.683L321.231 283.575C326.435 288.779 326.435 297.213 321.231 302.417C316.027 307.621 307.593 307.621 302.389 302.417L160.82 160.848C155.617 155.644 147.182 155.644 141.979 160.848C136.775 166.052 136.775 174.486 141.979 179.689L229.87 267.581C235.074 272.785 235.074 281.219 229.87 286.423C224.666 291.627 216.232 291.627 211.028 286.423L176.814 252.209C171.61 247.005 163.176 247.005 157.973 252.209C152.769 257.412 152.769 265.846 157.973 271.05L245.864 358.942C251.068 364.146 251.068 372.58 245.864 377.784C240.66 382.988 232.226 382.988 227.022 377.784L85.4535 236.215C80.2496 231.011 71.8156 231.011 66.6117 236.215C61.4079 241.419 61.4079 249.853 66.6117 255.056L154.503 342.948C159.707 348.152 159.707 356.586 154.503 361.79C149.299 366.994 140.865 366.994 135.662 361.79L101.447 327.576C96.2436 322.372 87.8095 322.372 82.6057 327.576C77.4018 332.779 77.4018 341.213 82.6057 346.417L159.359 423.17C232.561 453.622 320.043 439.103 379.573 379.573Z" fill="url(#paint2_linear)"/>
<defs>
<linearGradient id="paint0_linear" x1="324.726" y1="540.69" x2="324.726" y2="1015.71" gradientUnits="userSpaceOnUse">
<stop stop-color="#008CFF"/>
<stop offset="1" stop-color="#008CFF" stop-opacity="0"/>
</linearGradient>
<linearGradient id="paint1_linear" x1="715.533" y1="231.014" x2="715.533" y2="529.763" gradientUnits="userSpaceOnUse">
<stop stop-color="#15CC7D"/>
<stop offset="1" stop-color="#15CC7D" stop-opacity="0"/>
</linearGradient>
<linearGradient id="paint2_linear" x1="250.668" y1="50.8569" x2="250.668" y2="438.634" gradientUnits="userSpaceOnUse">
<stop stop-color="#DD8533"/>
<stop offset="1" stop-color="#FBA733" stop-opacity="0.4"/>
</linearGradient>
</defs>
</svg>
