<svg width="180" height="180" viewBox="0 0 180 180" fill="none" xmlns="http://www.w3.org/2000/svg">
<circle cx="90" cy="90" r="90" fill="#F4F6FF"/>
<g clip-path="url(#clip0)">
<path d="M117.336 88.2729L97.5175 39.8815L97.389 39.657C95.5895 34.8156 90.8902 31.3833 85.4228 31.5536C78.5496 31.6888 73.0651 37.4604 73.1739 44.3493C73.168 46.0868 73.6096 47.71 74.2589 49.1816L74.2801 49.3076L90.9607 89.9083L47.7559 81.5778C42.7174 80.4446 37.299 82.5246 34.3849 87.163C30.735 92.9751 32.5072 100.737 38.3815 104.373C39.8558 105.278 41.4263 105.829 42.9944 106.135L43.1772 106.143L81.3584 113.506C81.2123 114.179 81.083 114.875 81.0105 115.6C79.1191 132.792 91.468 148.256 108.672 150.202C125.803 152.095 141.339 139.73 143.23 122.538C145.171 105.947 133.587 90.9495 117.336 88.2729Z" fill="#2CF3A2"/>
<path d="M143.247 122.562C143.235 122.642 143.239 122.745 143.227 122.824C143.216 122.761 143.235 122.642 143.247 122.562Z" fill="#FAE5F6"/>
<path d="M78.446 33.923C77.6609 34.496 76.9433 35.1613 76.2929 35.919C77.6958 35.3196 79.204 34.9616 80.822 34.9479C86.2831 34.8175 91.0055 38.233 92.7882 43.0513L92.9167 43.2758L112.718 91.6442C128.953 94.2977 140.536 109.295 138.629 125.932C137.756 133.998 133.822 140.972 128.177 145.942C129.013 145.438 129.808 144.928 130.593 144.355C137.359 139.417 142.17 131.802 143.227 122.824C143.239 122.745 143.235 122.642 143.247 122.562C144.19 114.446 141.903 106.706 137.433 100.63C132.744 94.2546 125.67 89.6546 117.353 88.2967L97.5347 39.9053L97.4062 39.6807C97.0032 38.5953 96.4512 37.548 95.7543 36.6417C93.4467 33.48 89.6488 31.4767 85.4231 31.5543C82.8155 31.6182 80.4086 32.4906 78.446 33.923Z" fill="#3ADBA5"/>
</g>
<defs>
<clipPath id="clip0">
<rect x="30" y="30" width="120" height="121" fill="white"/>
</clipPath>
</defs>
</svg>
