<svg width="180" height="180" viewBox="0 0 180 180" fill="none" xmlns="http://www.w3.org/2000/svg">
<circle cx="90" cy="90" r="90" fill="#F4F6FF"/>
<g clip-path="url(#clip0)">
<path d="M62.1123 130.591C61.8369 131.654 61.6893 132.765 61.6893 133.914C61.6893 141.196 67.5924 147.099 74.8743 147.099C78.7434 147.099 82.225 145.431 84.6366 142.777C83.5941 141.422 82.7345 139.919 82.0952 138.306C80.022 139.665 77.5416 140.456 74.8762 140.456C68.7411 140.454 63.5856 136.266 62.1123 130.591Z" fill="#E9EAF0"/>
<path d="M130.94 125.271C129.467 130.944 124.311 135.133 118.178 135.133C117.938 135.133 117.698 135.127 117.462 135.114C117.014 137.378 116.152 139.494 114.958 141.381C115.989 141.64 117.069 141.776 118.18 141.776C125.462 141.776 131.365 135.873 131.365 128.591C131.361 127.444 131.216 126.331 130.94 125.271Z" fill="#E9EAF0"/>
<path d="M114.956 134.736C111.677 139.917 105.894 143.357 99.3086 143.357C93.3348 143.357 88.0199 140.527 84.6366 136.133C83.8852 136.959 83.0315 137.688 82.0952 138.304C82.7345 139.919 83.5941 141.422 84.6366 142.775C88.0199 147.169 93.3328 150 99.3086 150C105.894 150 111.677 146.56 114.956 141.379C116.15 139.492 117.012 137.378 117.46 135.112C116.603 135.068 115.765 134.939 114.956 134.736Z" fill="#E9EAF0"/>
<path d="M61.6913 127.271C61.6913 134.553 67.5943 140.456 74.8762 140.456C82.1582 140.456 88.0612 134.553 88.0612 127.271C88.0612 119.989 82.1582 114.086 74.8762 114.086C67.5924 114.086 61.6913 119.989 61.6913 127.271Z" fill="#FEFEFE"/>
<path d="M104.993 121.948C104.993 129.23 110.896 135.133 118.178 135.133C125.46 135.133 131.363 129.23 131.363 121.948C131.363 114.666 125.46 108.763 118.178 108.763C110.896 108.763 104.993 114.666 104.993 121.948Z" fill="#FEFEFE"/>
<path d="M80.8009 124.852C80.8009 135.072 89.086 143.357 99.3066 143.357C109.527 143.357 117.812 135.072 117.812 124.852C117.812 114.631 109.527 106.346 99.3066 106.346C89.088 106.344 80.8009 114.631 80.8009 124.852Z" fill="#FEFEFE"/>
<path d="M128.328 77.9048C123.021 77.3383 108.772 78.5067 91.9008 81.0048C91.1415 81.117 90.3783 81.2311 89.6092 81.3491C88.1261 81.5753 86.6626 81.8074 85.2247 82.0415C84.731 82.1201 84.2412 82.2008 83.7534 82.2834C82.345 82.5155 80.9622 82.7535 79.6089 82.9915C64.6281 85.6273 53.1308 88.4893 50.3829 90.2892C50.3259 90.3246 50.2728 90.3619 50.2236 90.3973L50.2295 90.417C49.9187 90.6472 49.7712 90.8596 49.8007 91.0484C49.8302 91.2491 50.0643 91.4182 50.4852 91.55C51.9349 92.0123 55.6152 92.0634 60.8278 91.7546C66.6148 91.4143 74.296 90.6255 82.9154 89.4532C85.4411 89.1089 88.0494 88.7333 90.7127 88.3241C92.2332 88.092 93.7341 87.856 95.2073 87.616H95.2132C103.632 86.243 111.233 84.7717 117.21 83.3908C124.634 81.6795 129.557 80.1059 130.433 79.0496L130.439 79.0398C130.525 78.9218 130.561 78.8116 130.545 78.7074C130.49 78.3474 129.825 78.0937 128.637 77.9402C128.568 77.9324 128.499 77.9245 128.426 77.9166C128.395 77.9127 128.361 77.9088 128.328 77.9048Z" fill="#C8DBD9"/>
<path d="M79.6089 82.9916C80.9622 82.7536 82.345 82.5155 83.7534 82.2834C84.2412 82.2008 84.731 82.1202 85.2247 82.0415C86.6626 81.8074 88.1261 81.5753 89.6092 81.3491C90.3783 81.2311 91.1415 81.117 91.9008 81.0049C108.772 78.5068 123.021 77.3384 128.328 77.9049C128.361 77.9088 128.395 77.9127 128.426 77.9167C128.499 77.9245 128.568 77.9324 128.637 77.9403C128.67 77.9442 128.706 77.9481 128.739 77.9521C128.942 77.9776 129.129 78.0071 129.3 78.0406C129.349 78.0504 129.4 78.0603 129.447 78.0701C129.742 78.1311 129.98 78.2038 130.159 78.2865C130.216 78.312 130.268 78.3376 130.311 78.3651C130.332 78.3809 130.358 78.3966 130.378 78.4123C130.397 78.4281 130.417 78.4419 130.435 78.4576L130.48 78.5068L130.517 78.554C130.527 78.5717 130.539 78.5894 130.545 78.6071C130.323 75.4205 130.254 72.2615 129.315 69.3228L129.262 69.3405C129.211 69.1831 129.162 69.0257 129.109 68.8703C125.175 57.0584 115.824 47.4947 104.102 43.2912L104.047 43.2715L104.067 43.2204C103.721 43.0965 103.372 42.9785 103.022 42.8624L103.02 42.8663L102.916 42.827C98.9388 41.5386 94.6959 40.8442 90.2878 40.8442C67.6632 40.8442 49.3227 59.1847 49.3227 81.8094C49.3227 84.7285 49.6276 87.5747 50.2098 90.3227C50.2688 90.3109 50.3259 90.299 50.3829 90.2892C53.1308 88.4894 64.6281 85.6274 79.6089 82.9916Z" fill="#FEFEFE"/>
<path d="M72.9348 44.6897C55.5404 49.4223 42.7509 65.3257 42.7509 84.219C42.7509 87.1282 43.0538 89.9686 43.6341 92.7086L45.3355 92.0595L45.3434 92.0556L49.4761 90.478H49.4781C49.7063 90.4249 49.9364 90.3738 50.1685 90.3305C49.6138 87.6494 49.3247 84.872 49.3247 82.0297C49.3247 81.9726 49.3247 81.9156 49.3247 81.8585C49.3247 81.8428 49.3247 81.8251 49.3247 81.8094C49.3227 65.3867 58.9847 51.2222 72.9348 44.6897Z" fill="#D3D5E2"/>
<path d="M74.0816 44.3966C73.696 44.4891 73.3144 44.5874 72.9328 44.6917C58.9827 51.2241 49.3207 65.3886 49.3207 81.8093C49.3207 81.8251 49.3207 81.8428 49.3207 81.8585C49.3915 65.0621 59.5669 50.6557 74.0816 44.3966Z" fill="#D9DDF8"/>
<path d="M51.1599 89.88C51.1304 89.8879 51.1009 89.8957 51.0694 89.9036C50.7999 90.0374 50.5717 90.1652 50.3829 90.2872C50.3967 90.2852 50.4104 90.2813 50.4242 90.2793C50.6229 90.1515 50.8707 90.0177 51.1599 89.88Z" fill="#D3E2E1"/>
<path d="M50.2433 90.3147C50.2315 90.3166 50.2216 90.3186 50.2098 90.3206C50.2216 90.3206 50.2334 90.3166 50.2433 90.3147ZM50.198 90.2694C50.2019 90.2871 50.2059 90.3048 50.2078 90.3225C50.2059 90.3048 50.2019 90.2871 50.198 90.2694Z" fill="white"/>
<path d="M51.0694 89.9036C50.7626 89.9862 50.4655 90.0688 50.1764 90.1495C50.1842 90.1888 50.1921 90.2282 50.2 90.2675C50.2039 90.2852 50.2078 90.3029 50.2118 90.3206C50.2236 90.3186 50.2334 90.3167 50.2452 90.3147C50.2924 90.3049 50.3377 90.297 50.3849 90.2872C50.5718 90.1652 50.7999 90.0373 51.0694 89.9036Z" fill="#FEFEFE"/>
<path d="M79.6345 83.0054C79.6187 83.025 79.603 83.0427 79.5872 83.0624C79.6207 83.0565 79.6541 83.0506 79.6876 83.0447C79.6679 83.0329 79.6522 83.0191 79.6345 83.0054Z" fill="#D3E2E1"/>
<path d="M114.88 32.3329H114.876V32.3348C109.995 34.3609 106.057 38.3225 104.069 43.2184L104.067 43.2203C103.721 43.0964 103.372 42.9764 103.022 42.8604C105.225 37.7618 109.494 33.8081 114.736 32.0063C114.771 32.1204 114.819 32.2306 114.88 32.3329Z" fill="#1FDED4"/>
<path d="M116.247 33.0685C117.094 33.0685 117.781 32.3816 117.781 31.5343C117.781 30.6869 117.094 30 116.247 30C115.399 30 114.712 30.6869 114.712 31.5343C114.712 32.3816 115.399 33.0685 116.247 33.0685Z" fill="#242D70"/>
<path d="M163.018 81.2626C167.192 81.2626 170.576 84.6478 170.576 88.8199C170.576 91.8196 168.827 94.4101 166.293 95.6336C165.304 96.1116 164.193 96.3791 163.018 96.3791C158.844 96.3791 155.461 92.9939 155.461 88.8218C155.461 84.6852 158.787 81.3236 162.91 81.2665C162.946 81.2626 162.981 81.2626 163.018 81.2626Z" fill="#1FDED4"/>
<path d="M166.293 95.6315L166.309 95.663L137.604 109.983C142.528 107.038 145.823 101.655 145.823 95.4997C145.823 86.9235 139.426 79.8442 131.143 78.7741C131.109 78.7682 131.078 78.7623 131.046 78.7604L162.91 81.2605V81.2624C158.787 81.3195 155.461 84.6831 155.461 88.8177C155.461 92.9918 158.846 96.375 163.018 96.375C164.193 96.377 165.302 96.1095 166.293 95.6315Z" fill="#242D70"/>
<path d="M128.954 112.369C130 112.369 131.029 112.273 132.022 112.092C99.1611 130.432 54.6887 123.762 54.6887 123.762L54.6848 123.711C60.1295 123.294 64.8444 120.294 67.6179 115.933C74.1091 120.257 81.9024 122.774 90.2878 122.774C102.053 122.774 112.657 117.818 120.128 109.875C122.695 111.458 125.718 112.369 128.954 112.369Z" fill="#242D70"/>
<path d="M50.0583 123.433L16.8138 118.284L16.8177 118.246C17.0616 118.27 17.3075 118.284 17.5573 118.284C21.7313 118.284 25.1146 114.899 25.1146 110.726C25.1146 106.552 21.7293 103.169 17.5573 103.169C16.8413 103.169 16.1469 103.269 15.49 103.456L45.3336 92.0594C40.0757 94.9156 36.5075 100.488 36.5075 106.893C36.5075 115.076 42.3299 121.893 50.0583 123.433Z" fill="#242D70"/>
<path d="M17.5573 103.167C21.7313 103.167 25.1146 106.552 25.1146 110.725C25.1146 114.899 21.7293 118.282 17.5573 118.282C17.3075 118.282 17.0596 118.268 16.8177 118.244C12.9918 117.877 10 114.649 10 110.726C10 107.739 11.7369 105.154 14.2566 103.927L14.2684 103.923L15.4781 103.46L15.4919 103.456C16.1469 103.27 16.8413 103.167 17.5573 103.167Z" fill="#1FDED4"/>
<path d="M131.141 78.7762C131.109 78.7683 131.076 78.7644 131.044 78.7624C130.887 78.7428 130.73 78.7251 130.572 78.7113C130.574 78.7447 130.572 78.7802 130.561 78.8136V78.8156C130.543 78.8883 130.502 78.9631 130.439 79.0398L130.433 79.0496C129.557 80.1059 124.634 81.6795 117.21 83.3908C111.233 84.7717 103.632 86.243 95.2132 87.616H95.2073C93.734 87.856 92.2332 88.092 90.7127 88.3241C88.0494 88.7333 85.4411 89.109 82.9154 89.4532C74.296 90.6255 66.6148 91.4143 60.8278 91.7546C55.6152 92.0634 51.9349 92.0123 50.4852 91.55C50.0643 91.4183 49.8302 91.2491 49.8007 91.0485C49.7712 90.8596 49.9187 90.6472 50.2295 90.417L50.2236 90.3974C50.2177 90.3718 50.2137 90.3482 50.2098 90.3226C49.962 90.3679 49.7181 90.421 49.4761 90.478H49.4741L45.3414 92.0556L45.3336 92.0595C40.0757 94.9156 36.5076 100.488 36.5076 106.893C36.5076 115.076 42.3299 121.895 50.0584 123.435L50.0643 123.437C51.1363 123.65 52.2417 123.762 53.3747 123.762C59.3663 123.762 64.6261 120.64 67.6179 115.933C74.1091 120.259 81.9044 122.775 90.2878 122.775C102.053 122.775 112.657 117.818 120.127 109.877C122.694 111.458 125.718 112.369 128.954 112.369C130 112.369 131.027 112.273 132.022 112.092C133.157 111.883 134.253 111.561 135.295 111.136L135.299 111.134L137.604 109.983C142.526 107.04 145.821 101.655 145.821 95.5018C145.821 86.9256 139.424 79.8463 131.141 78.7762Z" fill="#1FDED4"/>
<path d="M67.6179 115.933C67.4881 116.138 67.3524 116.34 67.2127 116.541L67.2147 116.539C67.3544 116.338 67.4881 116.138 67.6179 115.933C67.6238 115.937 67.6297 115.941 67.6356 115.945C67.6297 115.941 67.6238 115.937 67.6179 115.933ZM131.698 112.147C130.804 112.292 129.886 112.369 128.954 112.369C128.338 112.369 127.73 112.336 127.132 112.273C127.73 112.338 128.338 112.369 128.954 112.369C129.888 112.369 130.804 112.292 131.698 112.147ZM36.5272 106.08C36.5154 106.326 36.5095 106.574 36.5076 106.822C36.5076 106.846 36.5076 106.869 36.5076 106.893C36.5076 110.569 37.6838 113.972 39.6804 116.744C37.6838 113.972 36.5076 110.571 36.5076 106.893C36.5076 106.619 36.5135 106.35 36.5272 106.08ZM36.5272 106.063V106.065C36.5272 106.063 36.5272 106.063 36.5272 106.063ZM145.815 95.071C145.819 95.2127 145.821 95.3563 145.821 95.4999C145.821 101.653 142.526 107.038 137.604 109.981L135.299 111.134L135.295 111.136C134.554 111.437 133.786 111.688 132.998 111.881C133.786 111.686 134.554 111.437 135.295 111.136L135.299 111.134L137.602 109.983C142.526 107.038 145.821 101.655 145.821 95.4999C145.821 95.4782 145.821 95.4566 145.821 95.4349C145.821 95.433 145.821 95.431 145.821 95.4271C145.821 95.3091 145.819 95.191 145.815 95.071Z" fill="#FAE5F6"/>
<path d="M74.4081 119.582C76.5403 120.481 78.765 121.203 81.0645 121.732C78.765 121.203 76.5403 120.481 74.4081 119.582ZM67.2167 116.537L67.2147 116.539C66.2823 117.873 65.1631 119.067 63.8944 120.082C64.097 119.92 64.2976 119.753 64.4923 119.582C64.4963 119.578 64.5002 119.574 64.5041 119.57C64.514 119.56 64.5258 119.551 64.5376 119.541C64.5455 119.533 64.5533 119.527 64.5632 119.519C64.5691 119.513 64.5769 119.507 64.5828 119.501C64.5927 119.492 64.6025 119.484 64.6123 119.474C64.6163 119.47 64.6222 119.464 64.6261 119.46C64.6359 119.45 64.6477 119.44 64.6595 119.431C64.6635 119.427 64.6674 119.423 64.6713 119.419C64.6831 119.407 64.6949 119.397 64.7087 119.385C64.7107 119.383 64.7126 119.381 64.7146 119.379C64.7284 119.368 64.7421 119.356 64.7559 119.342L64.7579 119.34C65.6765 118.502 66.5007 117.562 67.2167 116.537Z" fill="#FEE4FE"/>
<path d="M120.128 109.877C122.207 111.157 124.585 111.999 127.132 112.273C124.585 111.997 122.207 111.157 120.128 109.877Z" fill="#FEE4FE"/>
<path d="M112.311 116.358C105.951 120.42 98.3959 122.774 90.2878 122.774C87.115 122.774 84.0288 122.414 81.0625 121.732C84.0268 122.414 87.115 122.774 90.2878 122.774C98.3959 122.774 105.951 120.42 112.311 116.358Z" fill="#FEE4FE"/>
<path d="M64.5041 119.57C64.5002 119.574 64.4963 119.578 64.4923 119.582C64.4963 119.578 64.5002 119.574 64.5041 119.57ZM64.5612 119.519C64.5533 119.527 64.5454 119.533 64.5356 119.541C64.5454 119.533 64.5533 119.527 64.5612 119.519ZM64.6123 119.474C64.6025 119.484 64.5927 119.492 64.5828 119.501C64.5907 119.492 64.6025 119.484 64.6123 119.474ZM64.6595 119.431C64.6497 119.44 64.6379 119.45 64.6261 119.46C64.6379 119.45 64.6477 119.44 64.6595 119.431ZM64.7087 119.387C64.6969 119.399 64.6851 119.409 64.6713 119.421C64.6831 119.409 64.6969 119.399 64.7087 119.387ZM64.7559 119.344C64.7422 119.356 64.7284 119.368 64.7146 119.381C64.7284 119.37 64.7422 119.358 64.7559 119.344ZM67.6199 115.933C67.4901 116.138 67.3563 116.338 67.2167 116.537C66.5026 117.56 65.6765 118.502 64.7579 119.342C65.8535 118.339 66.8174 117.192 67.6199 115.933Z" fill="#322875"/>
<path d="M145.677 93.3184C144.997 98.5408 141.93 103.014 137.602 105.602L135.299 106.753L135.295 106.755C134.253 107.18 133.157 107.503 132.022 107.711C131.027 107.892 130 107.988 128.954 107.988C125.718 107.988 122.694 107.078 120.127 105.496C112.657 113.437 102.053 118.394 90.2878 118.394C81.9044 118.394 74.1091 115.876 67.6179 111.553C64.6261 116.258 59.3663 119.379 53.3747 119.379C52.2417 119.379 51.1363 119.267 50.0643 119.055L50.0584 119.053C43.0322 117.652 37.5816 111.889 36.6492 104.705C36.5921 105.152 36.5508 105.604 36.5272 106.063V106.065C36.5272 106.071 36.5272 106.076 36.5272 106.08C36.5154 106.35 36.5076 106.621 36.5076 106.893C36.5076 110.569 37.6838 113.972 39.6804 116.744C42.1273 120.139 45.8037 122.588 50.0584 123.435L50.0643 123.437C51.1363 123.65 52.2417 123.762 53.3747 123.762C57.354 123.762 61.0088 122.385 63.8924 120.082C65.1611 119.069 66.2804 117.875 67.2127 116.539C67.3524 116.34 67.4861 116.138 67.6179 115.931C67.6238 115.935 67.6297 115.939 67.6356 115.943C69.762 117.357 72.028 118.579 74.4081 119.582C76.5403 120.479 78.765 121.203 81.0645 121.73C84.0288 122.413 87.117 122.772 90.2898 122.772C98.3978 122.772 105.953 120.418 112.313 116.356C115.18 114.523 117.806 112.343 120.127 109.875C122.207 111.155 124.585 111.995 127.132 112.269C127.73 112.334 128.338 112.365 128.954 112.365C129.888 112.365 130.804 112.288 131.698 112.143C131.806 112.125 131.914 112.107 132.022 112.088C132.351 112.027 132.677 111.958 132.998 111.879C133.786 111.684 134.554 111.435 135.295 111.134L135.299 111.132L137.604 109.981C142.526 107.038 145.821 101.653 145.821 95.4998C145.821 95.3562 145.819 95.2126 145.815 95.071C145.799 94.4789 145.752 93.8947 145.677 93.3184Z" fill="#2DC8D6"/>
<path d="M10.0059 110.447C10.0059 110.451 10.0059 110.453 10.0059 110.457C10.0039 110.455 10.0039 110.451 10.0059 110.447ZM10.0059 110.414C10.0059 110.418 10.0059 110.424 10.0059 110.427C10.0059 110.422 10.0059 110.418 10.0059 110.414ZM10.0079 110.378C10.0079 110.384 10.0079 110.39 10.0079 110.398C10.0079 110.39 10.0079 110.384 10.0079 110.378ZM10.0098 110.343C10.0098 110.351 10.0098 110.361 10.0079 110.368C10.0079 110.361 10.0098 110.353 10.0098 110.343ZM10.0118 110.309C10.0118 110.319 10.0098 110.329 10.0098 110.341C10.0098 110.329 10.0118 110.319 10.0118 110.309ZM10.0138 110.274C10.0138 110.284 10.0118 110.294 10.0118 110.302C10.0118 110.294 10.0118 110.284 10.0138 110.274ZM10.0787 109.631C10.0472 109.841 10.0256 110.056 10.0138 110.272C10.0256 110.056 10.0492 109.841 10.0787 109.631Z" fill="#FAE5F6"/>
<path d="M25.1146 110.683C25.1146 110.697 25.1146 110.711 25.1146 110.725C25.1165 110.713 25.1165 110.697 25.1146 110.683ZM25.1146 110.646C25.1146 110.652 25.1146 110.66 25.1146 110.666C25.1146 110.66 25.1146 110.654 25.1146 110.646Z" fill="#322875"/>
<path d="M25.0359 109.631C24.5048 113.286 21.3595 116.092 17.5573 116.092C17.3075 116.092 17.0596 116.079 16.8177 116.055C13.3557 115.721 10.5763 113.044 10.0787 109.631C10.0472 109.841 10.0256 110.056 10.0138 110.272C10.0138 110.274 10.0138 110.274 10.0138 110.276C10.0138 110.286 10.0118 110.296 10.0118 110.304C10.0118 110.306 10.0118 110.308 10.0118 110.309C10.0118 110.319 10.0098 110.329 10.0098 110.341C10.0098 110.343 10.0098 110.343 10.0098 110.345C10.0098 110.353 10.0098 110.363 10.0079 110.37C10.0079 110.372 10.0079 110.376 10.0079 110.378C10.0079 110.384 10.0079 110.39 10.0079 110.398C10.0079 110.404 10.0079 110.408 10.0079 110.414C10.0079 110.418 10.0079 110.424 10.0079 110.428C10.0079 110.435 10.0079 110.441 10.0079 110.449C10.0079 110.453 10.0079 110.455 10.0079 110.459C10.0079 110.467 10.0079 110.477 10.0079 110.485C10.0079 110.485 10.0079 110.485 10.0079 110.487C10.002 110.565 10 110.646 10 110.726C10 114.651 12.9918 117.877 16.8177 118.246C17.0616 118.27 17.3075 118.284 17.5573 118.284C21.7313 118.284 25.1146 114.899 25.1146 110.726C25.1146 110.713 25.1146 110.699 25.1146 110.685C25.1146 110.679 25.1146 110.673 25.1146 110.667C25.1146 110.662 25.1146 110.654 25.1146 110.648C25.1106 110.302 25.0831 109.963 25.0359 109.631Z" fill="#2DC8D6"/>
<path d="M155.54 87.7242C155.491 88.0567 155.465 88.395 155.461 88.7392C155.461 88.7471 155.461 88.755 155.461 88.7609C155.461 88.7668 155.461 88.7727 155.461 88.7766C155.461 88.7904 155.461 88.8041 155.461 88.8179C155.461 92.9919 158.846 96.3752 163.018 96.3752C164.193 96.3752 165.304 96.1077 166.293 95.6297C168.827 94.4082 170.576 91.8156 170.576 88.8159C170.576 88.8022 170.576 88.7884 170.576 88.7746C170.576 88.7687 170.576 88.7628 170.576 88.7569C170.576 88.751 170.576 88.7432 170.576 88.7353C170.572 88.393 170.544 88.0547 170.497 87.7242C170.129 90.2479 168.512 92.3684 166.293 93.4384C165.304 93.9164 164.193 94.1839 163.018 94.1839C159.216 94.1859 156.071 91.377 155.54 87.7242Z" fill="#2DC8D6"/>
</g>
<defs>
<clipPath id="clip0">
<rect x="10" y="30" width="160.576" height="120" fill="white"/>
</clipPath>
</defs>
</svg>
