<svg width="616" height="939" viewBox="0 0 616 939" fill="none" xmlns="http://www.w3.org/2000/svg">
<g clip-path="url(#clip0)">
<path d="M95.5355 35.9682C95.5355 -84.9304 322.277 -157.693 443.207 -184H811.032C813.272 95.298 816.407 681.432 811.032 791.584C804.314 929.274 626.28 895.691 565.815 867.146C505.351 838.6 224.862 1048.49 50.1871 791.584C-124.488 534.675 225.793 344.62 307.161 313.027C372.033 287.84 308.837 254.257 277.557 232.848C225.91 204.722 95.5355 156.867 95.5355 35.9682Z" fill="url(#paint0_linear)"/>
<g style="mix-blend-mode:lighten" opacity="0.05">
<mask id="mask0" mask-type="alpha" maskUnits="userSpaceOnUse" x="124" y="41" width="749" height="759">
<g style="mix-blend-mode:lighten">
<circle cx="311.916" cy="246.031" r="6.77958" fill="#2CF3A2"/>
<circle cx="374.062" cy="246.031" r="11.2993" fill="#2CF3A2"/>
<circle r="3.38979" transform="matrix(1 0 0 -1 367.283 187.274)" fill="#2CF3A2"/>
<circle r="3.38979" transform="matrix(1 0 0 -1 351.463 223.432)" fill="#2CF3A2"/>
<circle cx="388.037" cy="168.118" r="3.724" transform="rotate(75 388.037 168.118)" fill="#2CF3A2"/>
<circle cx="396.872" cy="201.092" r="6.20666" transform="rotate(75 396.872 201.092)" fill="#2CF3A2"/>
<circle r="1.862" transform="matrix(0.258819 0.965926 0.965926 -0.258819 427.083 189.141)" fill="#2CF3A2"/>
<circle r="1.862" transform="matrix(0.258819 0.965926 0.965926 -0.258819 405.65 185.889)" fill="#2CF3A2"/>
<circle cx="364.577" cy="144.376" r="3.724" transform="rotate(15 364.577 144.376)" fill="#2CF3A2"/>
<circle cx="397.55" cy="153.212" r="6.20666" transform="rotate(15 397.55 153.212)" fill="#2CF3A2"/>
<circle r="1.862" transform="matrix(0.965926 0.258819 0.258819 -0.965926 402.306 121.073)" fill="#2CF3A2"/>
<circle r="1.862" transform="matrix(0.965926 0.258819 0.258819 -0.965926 388.773 138.009)" fill="#2CF3A2"/>
<circle cx="257.818" cy="228.96" r="6.77958" transform="rotate(-24.3258 257.818 228.96)" fill="#2CF3A2"/>
<circle cx="314.447" cy="203.36" r="11.2993" transform="rotate(-24.3258 314.447 203.36)" fill="#2CF3A2"/>
<circle r="3.38979" transform="matrix(0.911218 -0.411924 -0.411924 -0.911218 284.066 152.613)" fill="#2CF3A2"/>
<circle r="3.38979" transform="matrix(0.911218 -0.411924 -0.411924 -0.911218 284.546 192.077)" fill="#2CF3A2"/>
<circle cx="366.459" cy="98.2974" r="6.77958" transform="rotate(164.227 366.459 98.2974)" fill="#2CF3A2"/>
<circle cx="306.652" cy="115.191" r="11.2993" transform="rotate(164.227 306.652 115.191)" fill="#2CF3A2"/>
<circle r="3.38979" transform="matrix(-0.962345 0.27183 0.27183 0.962345 329.148 169.892)" fill="#2CF3A2"/>
<circle r="3.38979" transform="matrix(-0.962345 0.27183 0.27183 0.962345 334.543 130.795)" fill="#2CF3A2"/>
<circle cx="517.688" cy="471.109" r="6.77958" transform="rotate(-32.7629 517.688 471.109)" fill="#2CF3A2"/>
<circle cx="569.948" cy="437.478" r="11.2993" transform="rotate(-32.7629 569.948 437.478)" fill="#2CF3A2"/>
<circle r="3.38979" transform="matrix(0.840917 -0.541164 -0.541164 -0.840917 532.45 391.738)" fill="#2CF3A2"/>
<circle r="3.38979" transform="matrix(0.840917 -0.541164 -0.541164 -0.840917 538.715 430.704)" fill="#2CF3A2"/>
<circle cx="539.536" cy="364.397" r="3.724" transform="rotate(42.2371 539.536 364.397)" fill="#2CF3A2"/>
<circle cx="564.81" cy="387.344" r="6.20666" transform="rotate(42.2371 564.81 387.344)" fill="#2CF3A2"/>
<circle r="1.862" transform="matrix(0.740369 0.6722 0.6722 -0.740369 583.748 360.946)" fill="#2CF3A2"/>
<circle r="1.862" transform="matrix(0.740369 0.6722 0.6722 -0.740369 563.964 369.809)" fill="#2CF3A2"/>
<circle cx="506.96" cy="357.128" r="3.724" transform="rotate(-17.7629 506.96 357.128)" fill="#2CF3A2"/>
<circle cx="539.469" cy="346.714" r="6.20666" transform="rotate(-17.7629 539.469 346.714)" fill="#2CF3A2"/>
<circle r="1.862" transform="matrix(0.952327 -0.305078 -0.305078 -0.952327 526.076 317.114)" fill="#2CF3A2"/>
<circle r="1.862" transform="matrix(0.952327 -0.305078 -0.305078 -0.952327 523.86 338.68)" fill="#2CF3A2"/>
<circle cx="462.958" cy="486.03" r="6.77958" transform="rotate(-57.0887 462.958 486.03)" fill="#2CF3A2"/>
<circle cx="496.725" cy="433.857" r="11.2993" transform="rotate(-57.0887 496.725 433.857)" fill="#2CF3A2"/>
<circle r="3.38979" transform="matrix(0.54334 -0.839512 -0.839512 -0.54334 443.714 407.624)" fill="#2CF3A2"/>
<circle r="3.38979" transform="matrix(0.54334 -0.839512 -0.839512 -0.54334 465.474 440.55)" fill="#2CF3A2"/>
<circle cx="483.606" cy="317.361" r="6.77958" transform="rotate(131.464 483.606 317.361)" fill="#2CF3A2"/>
<circle cx="442.456" cy="363.932" r="11.2993" transform="rotate(131.464 442.456 363.932)" fill="#2CF3A2"/>
<circle r="3.38979" transform="matrix(-0.662148 0.749373 0.749373 0.662148 490.975 397.757)" fill="#2CF3A2"/>
<circle r="3.38979" transform="matrix(-0.662148 0.749373 0.749373 0.662148 474.354 361.961)" fill="#2CF3A2"/>
<circle cx="475.47" cy="266.89" r="4.25924" fill="#2CF3A2"/>
<circle cx="514.513" cy="266.89" r="7.09873" fill="#2CF3A2"/>
<circle r="2.12962" transform="matrix(1 0 0 -1 510.253 229.977)" fill="#2CF3A2"/>
<circle r="2.12962" transform="matrix(1 0 0 -1 500.315 252.693)" fill="#2CF3A2"/>
<circle cx="523.292" cy="217.942" r="2.33958" transform="rotate(75 523.292 217.942)" fill="#2CF3A2"/>
<circle cx="528.843" cy="238.658" r="3.8993" transform="rotate(75 528.843 238.658)" fill="#2CF3A2"/>
<circle r="1.16979" transform="matrix(0.258819 0.965926 0.965926 -0.258819 547.823 231.15)" fill="#2CF3A2"/>
<circle r="1.16979" transform="matrix(0.258819 0.965926 0.965926 -0.258819 534.357 229.106)" fill="#2CF3A2"/>
<circle cx="508.553" cy="203.026" r="2.33958" transform="rotate(15 508.553 203.026)" fill="#2CF3A2"/>
<circle cx="529.269" cy="208.577" r="3.8993" transform="rotate(15 529.269 208.577)" fill="#2CF3A2"/>
<circle r="1.16979" transform="matrix(0.965926 0.258819 0.258819 -0.965926 532.257 188.386)" fill="#2CF3A2"/>
<circle r="1.16979" transform="matrix(0.965926 0.258819 0.258819 -0.965926 523.754 199.026)" fill="#2CF3A2"/>
<circle cx="441.483" cy="256.165" r="4.25924" transform="rotate(-24.3258 441.483 256.165)" fill="#2CF3A2"/>
<circle cx="477.06" cy="240.083" r="7.09873" transform="rotate(-24.3258 477.06 240.083)" fill="#2CF3A2"/>
<circle r="2.12962" transform="matrix(0.911218 -0.411924 -0.411924 -0.911218 457.973 208.201)" fill="#2CF3A2"/>
<circle r="2.12962" transform="matrix(0.911218 -0.411924 -0.411924 -0.911218 458.274 232.994)" fill="#2CF3A2"/>
<circle cx="509.736" cy="174.078" r="4.25924" transform="rotate(164.227 509.736 174.078)" fill="#2CF3A2"/>
<circle cx="472.163" cy="184.691" r="7.09873" transform="rotate(164.227 472.163 184.691)" fill="#2CF3A2"/>
<circle r="2.12962" transform="matrix(-0.962345 0.27183 0.27183 0.962345 486.296 219.056)" fill="#2CF3A2"/>
<circle r="2.12962" transform="matrix(-0.962345 0.27183 0.27183 0.962345 489.685 194.494)" fill="#2CF3A2"/>
<circle cx="164.299" cy="674.795" r="4.25924" fill="#2CF3A2"/>
<circle cx="203.342" cy="674.795" r="7.09873" fill="#2CF3A2"/>
<circle r="2.12962" transform="matrix(1 0 0 -1 199.083 637.882)" fill="#2CF3A2"/>
<circle r="2.12962" transform="matrix(1 0 0 -1 189.145 660.598)" fill="#2CF3A2"/>
<circle cx="212.122" cy="625.847" r="2.33958" transform="rotate(75 212.122 625.847)" fill="#2CF3A2"/>
<circle cx="217.673" cy="646.562" r="3.8993" transform="rotate(75 217.673 646.562)" fill="#2CF3A2"/>
<circle r="1.16979" transform="matrix(0.258819 0.965926 0.965926 -0.258819 236.653 639.055)" fill="#2CF3A2"/>
<circle r="1.16979" transform="matrix(0.258819 0.965926 0.965926 -0.258819 223.187 637.011)" fill="#2CF3A2"/>
<circle cx="197.383" cy="610.931" r="2.33958" transform="rotate(15 197.383 610.931)" fill="#2CF3A2"/>
<circle cx="218.098" cy="616.482" r="3.8993" transform="rotate(15 218.098 616.482)" fill="#2CF3A2"/>
<circle r="1.16979" transform="matrix(0.965926 0.258819 0.258819 -0.965926 221.086 596.291)" fill="#2CF3A2"/>
<circle r="1.16979" transform="matrix(0.965926 0.258819 0.258819 -0.965926 212.584 606.931)" fill="#2CF3A2"/>
<circle cx="130.313" cy="664.07" r="4.25924" transform="rotate(-24.3258 130.313 664.07)" fill="#2CF3A2"/>
<circle cx="165.889" cy="647.988" r="7.09873" transform="rotate(-24.3258 165.889 647.988)" fill="#2CF3A2"/>
<circle r="2.12962" transform="matrix(0.911218 -0.411924 -0.411924 -0.911218 146.803 616.106)" fill="#2CF3A2"/>
<circle r="2.12962" transform="matrix(0.911218 -0.411924 -0.411924 -0.911218 147.104 640.899)" fill="#2CF3A2"/>
<circle cx="198.565" cy="581.982" r="4.25924" transform="rotate(164.227 198.565 581.982)" fill="#2CF3A2"/>
<circle cx="160.992" cy="592.595" r="7.09873" transform="rotate(164.227 160.992 592.595)" fill="#2CF3A2"/>
<circle r="2.12962" transform="matrix(-0.962345 0.27183 0.27183 0.962345 175.125 626.961)" fill="#2CF3A2"/>
<circle r="2.12962" transform="matrix(-0.962345 0.27183 0.27183 0.962345 178.515 602.399)" fill="#2CF3A2"/>
<circle cx="616.688" cy="385.523" r="4.25924" transform="rotate(-57.0887 616.688 385.523)" fill="#2CF3A2"/>
<circle r="2.12962" transform="matrix(0.54334 -0.839512 -0.839512 -0.54334 604.598 336.265)" fill="#2CF3A2"/>
<circle r="2.12962" transform="matrix(0.54334 -0.839512 -0.839512 -0.54334 618.269 356.951)" fill="#2CF3A2"/>
<circle cx="603.807" cy="308.816" r="7.09873" transform="rotate(131.464 603.807 308.816)" fill="#2CF3A2"/>
<circle cx="616.688" cy="565.649" r="4.25924" transform="rotate(-57.0887 616.688 565.649)" fill="#2CF3A2"/>
<circle r="2.12962" transform="matrix(0.54334 -0.839512 -0.839512 -0.54334 604.598 516.391)" fill="#2CF3A2"/>
<circle r="2.12962" transform="matrix(0.54334 -0.839512 -0.839512 -0.54334 618.269 537.076)" fill="#2CF3A2"/>
<circle cx="603.807" cy="488.941" r="7.09873" transform="rotate(131.464 603.807 488.941)" fill="#2CF3A2"/>
<circle cx="551.977" cy="601.598" r="4.25924" transform="rotate(-32.7629 551.977 601.598)" fill="#2CF3A2"/>
<circle cx="584.809" cy="580.469" r="7.09873" transform="rotate(-32.7629 584.809 580.469)" fill="#2CF3A2"/>
<circle r="2.12962" transform="matrix(0.840917 -0.541164 -0.541164 -0.840917 561.251 551.733)" fill="#2CF3A2"/>
<circle r="2.12962" transform="matrix(0.840917 -0.541164 -0.541164 -0.840917 565.187 576.213)" fill="#2CF3A2"/>
<circle cx="565.703" cy="534.557" r="2.33958" transform="rotate(42.2371 565.703 534.557)" fill="#2CF3A2"/>
<circle cx="581.581" cy="548.973" r="3.8993" transform="rotate(42.2371 581.581 548.973)" fill="#2CF3A2"/>
<circle r="1.16979" transform="matrix(0.740369 0.6722 0.6722 -0.740369 593.479 532.388)" fill="#2CF3A2"/>
<circle r="1.16979" transform="matrix(0.740369 0.6722 0.6722 -0.740369 581.049 537.957)" fill="#2CF3A2"/>
<circle cx="545.237" cy="529.99" r="2.33958" transform="rotate(-17.7629 545.237 529.99)" fill="#2CF3A2"/>
<circle cx="565.66" cy="523.447" r="3.8993" transform="rotate(-17.7629 565.66 523.447)" fill="#2CF3A2"/>
<circle r="1.16979" transform="matrix(0.952327 -0.305078 -0.305078 -0.952327 557.246 504.851)" fill="#2CF3A2"/>
<circle r="1.16979" transform="matrix(0.952327 -0.305078 -0.305078 -0.952327 555.854 518.399)" fill="#2CF3A2"/>
<circle cx="517.593" cy="610.971" r="4.25924" transform="rotate(-57.0887 517.593 610.971)" fill="#2CF3A2"/>
<circle cx="538.807" cy="578.194" r="7.09873" transform="rotate(-57.0887 538.807 578.194)" fill="#2CF3A2"/>
<circle r="2.12962" transform="matrix(0.54334 -0.839512 -0.839512 -0.54334 505.503 561.713)" fill="#2CF3A2"/>
<circle r="2.12962" transform="matrix(0.54334 -0.839512 -0.839512 -0.54334 519.174 582.399)" fill="#2CF3A2"/>
<circle cx="530.565" cy="505.006" r="4.25924" transform="rotate(131.464 530.565 505.006)" fill="#2CF3A2"/>
<circle cx="504.712" cy="534.264" r="7.09873" transform="rotate(131.464 504.712 534.264)" fill="#2CF3A2"/>
<circle r="2.12962" transform="matrix(-0.662148 0.749373 0.749373 0.662148 535.195 555.515)" fill="#2CF3A2"/>
<circle r="2.12962" transform="matrix(-0.662148 0.749373 0.749373 0.662148 524.753 533.026)" fill="#2CF3A2"/>
<circle cx="231.687" cy="537.038" r="4.25924" fill="#2CF3A2"/>
<circle cx="270.73" cy="537.038" r="7.09873" fill="#2CF3A2"/>
<circle r="2.12962" transform="matrix(1 0 0 -1 266.471 500.124)" fill="#2CF3A2"/>
<circle r="2.12962" transform="matrix(1 0 0 -1 256.533 522.84)" fill="#2CF3A2"/>
<circle cx="279.51" cy="488.09" r="2.33958" transform="rotate(75 279.51 488.09)" fill="#2CF3A2"/>
<circle cx="285.06" cy="508.805" r="3.8993" transform="rotate(75 285.06 508.805)" fill="#2CF3A2"/>
<circle r="1.16979" transform="matrix(0.258819 0.965926 0.965926 -0.258819 304.04 501.297)" fill="#2CF3A2"/>
<circle r="1.16979" transform="matrix(0.258819 0.965926 0.965926 -0.258819 290.575 499.254)" fill="#2CF3A2"/>
<circle cx="264.771" cy="473.174" r="2.33958" transform="rotate(15 264.771 473.174)" fill="#2CF3A2"/>
<circle cx="285.486" cy="478.725" r="3.8993" transform="rotate(15 285.486 478.725)" fill="#2CF3A2"/>
<circle r="1.16979" transform="matrix(0.965926 0.258819 0.258819 -0.965926 288.474 458.534)" fill="#2CF3A2"/>
<circle r="1.16979" transform="matrix(0.965926 0.258819 0.258819 -0.965926 279.972 469.173)" fill="#2CF3A2"/>
<circle cx="197.701" cy="526.313" r="4.25924" transform="rotate(-24.3258 197.701 526.313)" fill="#2CF3A2"/>
<circle cx="233.277" cy="510.23" r="7.09873" transform="rotate(-24.3258 233.277 510.23)" fill="#2CF3A2"/>
<circle r="2.12962" transform="matrix(0.911218 -0.411924 -0.411924 -0.911218 214.191 478.349)" fill="#2CF3A2"/>
<circle r="2.12962" transform="matrix(0.911218 -0.411924 -0.411924 -0.911218 214.492 503.142)" fill="#2CF3A2"/>
<circle cx="265.953" cy="444.225" r="4.25924" transform="rotate(164.227 265.953 444.225)" fill="#2CF3A2"/>
<circle cx="228.38" cy="454.838" r="7.09873" transform="rotate(164.227 228.38 454.838)" fill="#2CF3A2"/>
<circle r="2.12962" transform="matrix(-0.962345 0.27183 0.27183 0.962345 242.513 489.204)" fill="#2CF3A2"/>
<circle r="2.12962" transform="matrix(-0.962345 0.27183 0.27183 0.962345 245.902 464.642)" fill="#2CF3A2"/>
<circle cx="284.711" cy="740.999" r="11.2303" transform="rotate(9.89522 284.711 740.999)" fill="#2CF3A2"/>
<circle cx="386.124" cy="758.69" r="18.7172" transform="rotate(9.89522 386.124 758.69)" fill="#2CF3A2"/>
<circle r="5.61517" transform="matrix(0.985124 0.171847 0.171847 -0.985124 391.787 660.878)" fill="#2CF3A2"/>
<circle r="5.61517" transform="matrix(0.985124 0.171847 0.171847 -0.985124 355.679 715.379)" fill="#2CF3A2"/>
<circle cx="431.108" cy="635.526" r="6.16878" transform="rotate(84.8952 431.108 635.526)" fill="#2CF3A2"/>
<circle cx="436.14" cy="691.849" r="10.2813" transform="rotate(84.8952 436.14 691.849)" fill="#2CF3A2"/>
<circle r="3.08439" transform="matrix(0.0889775 0.996034 0.996034 -0.0889775 488.841 680.948)" fill="#2CF3A2"/>
<circle r="3.08439" transform="matrix(0.0889775 0.996034 0.996034 -0.0889775 454.791 669.539)" fill="#2CF3A2"/>
<circle cx="399.583" cy="590.105" r="6.16878" transform="rotate(24.8952 399.583 590.105)" fill="#2CF3A2"/>
<circle cx="450.875" cy="613.909" r="10.2813" transform="rotate(24.8952 450.875 613.909)" fill="#2CF3A2"/>
<circle r="3.08439" transform="matrix(0.907079 0.42096 0.42096 -0.907079 467.785 562.817)" fill="#2CF3A2"/>
<circle r="3.08439" transform="matrix(0.907079 0.42096 0.42096 -0.907079 440.879 586.601)" fill="#2CF3A2"/>
<circle cx="201.291" cy="697.742" r="11.2303" transform="rotate(-14.4306 201.291 697.742)" fill="#2CF3A2"/>
<circle cx="300.988" cy="672.088" r="18.7172" transform="rotate(-14.4306 300.988 672.088)" fill="#2CF3A2"/>
<circle r="5.61517" transform="matrix(0.96845 -0.249207 -0.249207 -0.96845 265.857 580.628)" fill="#2CF3A2"/>
<circle r="5.61517" transform="matrix(0.96845 -0.249207 -0.249207 -0.96845 255.405 645.163)" fill="#2CF3A2"/>
<circle cx="415.77" cy="515.446" r="11.2303" transform="rotate(174.122 415.77 515.446)" fill="#2CF3A2"/>
<circle cx="313.367" cy="525.989" r="18.7172" transform="rotate(174.122 313.367 525.989)" fill="#2CF3A2"/>
<circle r="5.61517" transform="matrix(-0.994742 0.10241 0.10241 0.994742 334.506 621.657)" fill="#2CF3A2"/>
<circle r="5.61517" transform="matrix(-0.994742 0.10241 0.10241 0.994742 354.438 559.393)" fill="#2CF3A2"/>
<circle cx="581.764" cy="236.166" r="11.2303" transform="rotate(-14.4306 581.764 236.166)" fill="#2CF3A2"/>
<circle cx="553.789" cy="775.038" r="7.05541" transform="rotate(9.89522 553.789 775.038)" fill="#2CF3A2"/>
<circle cx="617.502" cy="786.152" r="11.759" transform="rotate(9.89522 617.502 786.152)" fill="#2CF3A2"/>
<circle r="3.5277" transform="matrix(0.985124 0.171847 0.171847 -0.985124 598.375 758.943)" fill="#2CF3A2"/>
<circle cx="501.382" cy="747.863" r="7.05541" transform="rotate(-14.4306 501.382 747.863)" fill="#2CF3A2"/>
<circle cx="564.016" cy="731.745" r="11.759" transform="rotate(-14.4306 564.016 731.745)" fill="#2CF3A2"/>
<circle r="3.5277" transform="matrix(0.96845 -0.249207 -0.249207 -0.96845 541.945 674.286)" fill="#2CF3A2"/>
<circle r="3.5277" transform="matrix(0.96845 -0.249207 -0.249207 -0.96845 535.379 714.83)" fill="#2CF3A2"/>
<circle cx="571.793" cy="639.959" r="11.759" transform="rotate(174.122 571.793 639.959)" fill="#2CF3A2"/>
<circle r="3.5277" transform="matrix(-0.994742 0.10241 0.10241 0.994742 585.073 700.062)" fill="#2CF3A2"/>
<circle r="3.5277" transform="matrix(-0.994742 0.10241 0.10241 0.994742 597.596 660.945)" fill="#2CF3A2"/>
</g>
</mask>
<g mask="url(#mask0)">
<path d="M156.711 232.88C137.628 135.555 314.148 81.0087 404.793 65.9011H663.61V756.477H123.315C-9.07509 534.634 318.919 436.832 324.882 392.702C330.846 348.572 180.565 354.536 156.711 232.88Z" fill="white"/>
</g>
</g>
</g>
<defs>
<linearGradient id="paint0_linear" x1="407.616" y1="-13.5667" x2="408" y2="921" gradientUnits="userSpaceOnUse">
<stop stop-color="#242D70"/>
<stop offset="1" stop-color="#2CF3A2"/>
</linearGradient>
<clipPath id="clip0">
<rect width="616" height="939" fill="white"/>
</clipPath>
</defs>
</svg>
