<svg width="960" height="1080" viewBox="0 0 960 1080" fill="none" xmlns="http://www.w3.org/2000/svg">
<g clip-path="url(#clip0)">
<path d="M111.38 22C111.38 -122 381.38 -208.667 525.38 -240H963.38C966.047 92.6667 969.78 790.8 963.38 922C955.38 1086 743.38 1046 671.38 1012C599.38 978 265.38 1228 57.3803 922C-150.62 616 266.488 389.629 363.38 352C440.628 322 365.375 282 328.128 256.5C266.628 223 111.38 166 111.38 22Z" fill="url(#paint0_linear)"/>
<g style="mix-blend-mode:lighten" opacity="0.05">
<mask id="mask0" mask-type="alpha" maskUnits="userSpaceOnUse" x="153" y="-79" width="1255" height="1272">
<g style="mix-blend-mode:lighten">
<circle cx="467" cy="264.053" r="11.3684" fill="#2CF3A2"/>
<circle cx="571.211" cy="264.053" r="18.9474" fill="#2CF3A2"/>
<circle r="5.68421" transform="matrix(1 0 0 -1 559.842 165.526)" fill="#2CF3A2"/>
<circle r="5.68421" transform="matrix(1 0 0 -1 533.316 226.158)" fill="#2CF3A2"/>
<circle cx="594.645" cy="133.404" r="6.24463" transform="rotate(75 594.645 133.404)" fill="#2CF3A2"/>
<circle cx="609.46" cy="188.696" r="10.4077" transform="rotate(75 609.46 188.696)" fill="#2CF3A2"/>
<circle r="3.12231" transform="matrix(0.258819 0.965926 0.965926 -0.258819 660.12 168.657)" fill="#2CF3A2"/>
<circle r="3.12231" transform="matrix(0.258819 0.965926 0.965926 -0.258819 624.179 163.203)" fill="#2CF3A2"/>
<circle cx="555.305" cy="93.5924" r="6.24463" transform="rotate(15 555.305 93.5924)" fill="#2CF3A2"/>
<circle cx="610.597" cy="108.408" r="10.4077" transform="rotate(15 610.597 108.408)" fill="#2CF3A2"/>
<circle r="3.12231" transform="matrix(0.965926 0.258819 0.258819 -0.965926 618.572 54.5156)" fill="#2CF3A2"/>
<circle r="3.12231" transform="matrix(0.965926 0.258819 0.258819 -0.965926 595.878 82.9142)" fill="#2CF3A2"/>
<circle cx="376.286" cy="235.427" r="11.3684" transform="rotate(-24.3258 376.286 235.427)" fill="#2CF3A2"/>
<circle cx="471.244" cy="192.5" r="18.9474" transform="rotate(-24.3258 471.244 192.5)" fill="#2CF3A2"/>
<circle r="5.68421" transform="matrix(0.911218 -0.411924 -0.411924 -0.911218 420.3 107.404)" fill="#2CF3A2"/>
<circle r="5.68421" transform="matrix(0.911218 -0.411924 -0.411924 -0.911218 421.104 173.58)" fill="#2CF3A2"/>
<circle cx="558.46" cy="16.3242" r="11.3684" transform="rotate(164.227 558.46 16.3242)" fill="#2CF3A2"/>
<circle cx="458.174" cy="44.6518" r="18.9474" transform="rotate(164.227 458.174 44.6518)" fill="#2CF3A2"/>
<circle r="5.68421" transform="matrix(-0.962345 0.27183 0.27183 0.962345 495.897 136.378)" fill="#2CF3A2"/>
<circle r="5.68421" transform="matrix(-0.962345 0.27183 0.27183 0.962345 504.943 70.8186)" fill="#2CF3A2"/>
<circle cx="812.051" cy="641.478" r="11.3684" transform="rotate(-32.7629 812.051 641.478)" fill="#2CF3A2"/>
<circle cx="899.684" cy="585.083" r="18.9474" transform="rotate(-32.7629 899.684 585.083)" fill="#2CF3A2"/>
<circle r="5.68421" transform="matrix(0.840917 -0.541164 -0.541164 -0.840917 836.805 508.383)" fill="#2CF3A2"/>
<circle r="5.68421" transform="matrix(0.840917 -0.541164 -0.541164 -0.840917 847.31 573.724)" fill="#2CF3A2"/>
<circle cx="848.688" cy="462.537" r="6.24463" transform="rotate(42.2371 848.688 462.537)" fill="#2CF3A2"/>
<circle cx="891.068" cy="501.015" r="10.4077" transform="rotate(42.2371 891.068 501.015)" fill="#2CF3A2"/>
<circle r="3.12231" transform="matrix(0.740369 0.6722 0.6722 -0.740369 922.824 456.749)" fill="#2CF3A2"/>
<circle r="3.12231" transform="matrix(0.740369 0.6722 0.6722 -0.740369 889.649 471.612)" fill="#2CF3A2"/>
<circle cx="794.061" cy="450.348" r="6.24463" transform="rotate(-17.7629 794.061 450.348)" fill="#2CF3A2"/>
<circle cx="848.575" cy="432.884" r="10.4077" transform="rotate(-17.7629 848.575 432.884)" fill="#2CF3A2"/>
<circle r="3.12231" transform="matrix(0.952327 -0.305078 -0.305078 -0.952327 826.117 383.25)" fill="#2CF3A2"/>
<circle r="3.12231" transform="matrix(0.952327 -0.305078 -0.305078 -0.952327 822.401 419.412)" fill="#2CF3A2"/>
<circle cx="720.277" cy="666.498" r="11.3684" transform="rotate(-57.0887 720.277 666.498)" fill="#2CF3A2"/>
<circle cx="776.899" cy="579.012" r="18.9474" transform="rotate(-57.0887 776.899 579.012)" fill="#2CF3A2"/>
<circle r="5.68421" transform="matrix(0.54334 -0.839512 -0.839512 -0.54334 688.008 535.022)" fill="#2CF3A2"/>
<circle r="5.68421" transform="matrix(0.54334 -0.839512 -0.839512 -0.54334 724.496 590.235)" fill="#2CF3A2"/>
<circle cx="754.9" cy="383.664" r="11.3684" transform="rotate(131.464 754.9 383.664)" fill="#2CF3A2"/>
<circle cx="685.897" cy="461.757" r="18.9474" transform="rotate(131.464 685.897 461.757)" fill="#2CF3A2"/>
<circle r="5.68421" transform="matrix(-0.662148 0.749373 0.749373 0.662148 767.258 518.476)" fill="#2CF3A2"/>
<circle r="5.68421" transform="matrix(-0.662148 0.749373 0.749373 0.662148 739.387 458.451)" fill="#2CF3A2"/>
<circle cx="741.257" cy="299.031" r="7.14215" fill="#2CF3A2"/>
<circle cx="806.727" cy="299.031" r="11.9036" fill="#2CF3A2"/>
<circle r="3.57108" transform="matrix(1 0 0 -1 799.585 237.132)" fill="#2CF3A2"/>
<circle r="3.57108" transform="matrix(1 0 0 -1 782.919 275.224)" fill="#2CF3A2"/>
<circle cx="821.449" cy="216.952" r="3.92315" transform="rotate(75 821.449 216.952)" fill="#2CF3A2"/>
<circle cx="830.756" cy="251.689" r="6.53859" transform="rotate(75 830.756 251.689)" fill="#2CF3A2"/>
<circle r="1.96158" transform="matrix(0.258819 0.965926 0.965926 -0.258819 862.583 239.099)" fill="#2CF3A2"/>
<circle r="1.96158" transform="matrix(0.258819 0.965926 0.965926 -0.258819 840.003 235.672)" fill="#2CF3A2"/>
<circle cx="796.734" cy="191.94" r="3.92315" transform="rotate(15 796.734 191.94)" fill="#2CF3A2"/>
<circle cx="831.47" cy="201.248" r="6.53859" transform="rotate(15 831.47 201.248)" fill="#2CF3A2"/>
<circle r="1.96158" transform="matrix(0.965926 0.258819 0.258819 -0.965926 836.481 167.39)" fill="#2CF3A2"/>
<circle r="1.96158" transform="matrix(0.965926 0.258819 0.258819 -0.965926 822.223 185.232)" fill="#2CF3A2"/>
<circle cx="684.266" cy="281.047" r="7.14215" transform="rotate(-24.3258 684.266 281.047)" fill="#2CF3A2"/>
<circle cx="743.923" cy="254.078" r="11.9036" transform="rotate(-24.3258 743.923 254.078)" fill="#2CF3A2"/>
<circle r="3.57108" transform="matrix(0.911218 -0.411924 -0.411924 -0.911218 711.918 200.617)" fill="#2CF3A2"/>
<circle r="3.57108" transform="matrix(0.911218 -0.411924 -0.411924 -0.911218 712.423 242.192)" fill="#2CF3A2"/>
<circle cx="798.716" cy="143.397" r="7.14215" transform="rotate(164.227 798.716 143.397)" fill="#2CF3A2"/>
<circle cx="735.711" cy="161.193" r="11.9036" transform="rotate(164.227 735.711 161.193)" fill="#2CF3A2"/>
<circle r="3.57108" transform="matrix(-0.962345 0.27183 0.27183 0.962345 759.41 218.82)" fill="#2CF3A2"/>
<circle r="3.57108" transform="matrix(-0.962345 0.27183 0.27183 0.962345 765.094 177.633)" fill="#2CF3A2"/>
<circle cx="219.467" cy="983.031" r="7.14215" fill="#2CF3A2"/>
<circle cx="284.937" cy="983.031" r="11.9036" fill="#2CF3A2"/>
<circle r="3.57108" transform="matrix(1 0 0 -1 277.795 921.132)" fill="#2CF3A2"/>
<circle r="3.57108" transform="matrix(1 0 0 -1 261.13 959.224)" fill="#2CF3A2"/>
<circle cx="299.659" cy="900.952" r="3.92315" transform="rotate(75 299.659 900.952)" fill="#2CF3A2"/>
<circle cx="308.967" cy="935.689" r="6.53859" transform="rotate(75 308.967 935.689)" fill="#2CF3A2"/>
<circle r="1.96158" transform="matrix(0.258819 0.965926 0.965926 -0.258819 340.794 923.099)" fill="#2CF3A2"/>
<circle r="1.96158" transform="matrix(0.258819 0.965926 0.965926 -0.258819 318.214 919.672)" fill="#2CF3A2"/>
<circle cx="274.944" cy="875.94" r="3.92315" transform="rotate(15 274.944 875.94)" fill="#2CF3A2"/>
<circle cx="309.681" cy="885.248" r="6.53859" transform="rotate(15 309.681 885.248)" fill="#2CF3A2"/>
<circle r="1.96158" transform="matrix(0.965926 0.258819 0.258819 -0.965926 314.691 851.39)" fill="#2CF3A2"/>
<circle r="1.96158" transform="matrix(0.965926 0.258819 0.258819 -0.965926 300.434 869.232)" fill="#2CF3A2"/>
<circle cx="162.477" cy="965.047" r="7.14215" transform="rotate(-24.3258 162.477 965.047)" fill="#2CF3A2"/>
<circle cx="222.134" cy="938.078" r="11.9036" transform="rotate(-24.3258 222.134 938.078)" fill="#2CF3A2"/>
<circle r="3.57108" transform="matrix(0.911218 -0.411924 -0.411924 -0.911218 190.128 884.617)" fill="#2CF3A2"/>
<circle r="3.57108" transform="matrix(0.911218 -0.411924 -0.411924 -0.911218 190.634 926.192)" fill="#2CF3A2"/>
<circle cx="276.927" cy="827.397" r="7.14215" transform="rotate(164.227 276.927 827.397)" fill="#2CF3A2"/>
<circle cx="213.922" cy="845.193" r="11.9036" transform="rotate(164.227 213.922 845.193)" fill="#2CF3A2"/>
<circle r="3.57108" transform="matrix(-0.962345 0.27183 0.27183 0.962345 237.621 902.82)" fill="#2CF3A2"/>
<circle r="3.57108" transform="matrix(-0.962345 0.27183 0.27183 0.962345 243.304 861.633)" fill="#2CF3A2"/>
<circle r="3.57108" transform="matrix(0.54334 -0.839512 -0.839512 -0.54334 957.787 415.363)" fill="#2CF3A2"/>
<circle cx="956.461" cy="369.334" r="11.9036" transform="rotate(131.464 956.461 369.334)" fill="#2CF3A2"/>
<circle r="3.57108" transform="matrix(0.54334 -0.839512 -0.839512 -0.54334 957.787 717.409)" fill="#2CF3A2"/>
<circle cx="956.461" cy="671.38" r="11.9036" transform="rotate(131.464 956.461 671.38)" fill="#2CF3A2"/>
<circle cx="869.549" cy="860.289" r="7.14215" transform="rotate(-32.7629 869.549 860.289)" fill="#2CF3A2"/>
<circle cx="924.604" cy="824.859" r="11.9036" transform="rotate(-32.7629 924.604 824.859)" fill="#2CF3A2"/>
<circle r="3.57108" transform="matrix(0.840917 -0.541164 -0.541164 -0.840917 885.1 776.673)" fill="#2CF3A2"/>
<circle r="3.57108" transform="matrix(0.840917 -0.541164 -0.541164 -0.840917 891.7 817.723)" fill="#2CF3A2"/>
<circle cx="892.566" cy="747.87" r="3.92315" transform="rotate(42.2371 892.566 747.87)" fill="#2CF3A2"/>
<circle cx="919.191" cy="772.044" r="6.53859" transform="rotate(42.2371 919.191 772.044)" fill="#2CF3A2"/>
<circle r="1.96158" transform="matrix(0.740369 0.6722 0.6722 -0.740369 939.142 744.234)" fill="#2CF3A2"/>
<circle r="1.96158" transform="matrix(0.740369 0.6722 0.6722 -0.740369 918.299 753.572)" fill="#2CF3A2"/>
<circle cx="858.247" cy="740.213" r="3.92315" transform="rotate(-17.7629 858.247 740.213)" fill="#2CF3A2"/>
<circle cx="892.495" cy="729.241" r="6.53859" transform="rotate(-17.7629 892.495 729.241)" fill="#2CF3A2"/>
<circle r="1.96158" transform="matrix(0.952327 -0.305078 -0.305078 -0.952327 878.385 698.058)" fill="#2CF3A2"/>
<circle r="1.96158" transform="matrix(0.952327 -0.305078 -0.305078 -0.952327 876.051 720.777)" fill="#2CF3A2"/>
<circle cx="811.892" cy="876.008" r="7.14215" transform="rotate(-57.0887 811.892 876.008)" fill="#2CF3A2"/>
<circle cx="847.464" cy="821.045" r="11.9036" transform="rotate(-57.0887 847.464 821.045)" fill="#2CF3A2"/>
<circle r="3.57108" transform="matrix(0.54334 -0.839512 -0.839512 -0.54334 791.619 793.409)" fill="#2CF3A2"/>
<circle r="3.57108" transform="matrix(0.54334 -0.839512 -0.839512 -0.54334 814.543 828.096)" fill="#2CF3A2"/>
<circle cx="833.644" cy="698.319" r="7.14215" transform="rotate(131.464 833.644 698.319)" fill="#2CF3A2"/>
<circle cx="790.293" cy="747.38" r="11.9036" transform="rotate(131.464 790.293 747.38)" fill="#2CF3A2"/>
<circle r="3.57108" transform="matrix(-0.662148 0.749373 0.749373 0.662148 841.408 783.014)" fill="#2CF3A2"/>
<circle r="3.57108" transform="matrix(-0.662148 0.749373 0.749373 0.662148 823.898 745.303)" fill="#2CF3A2"/>
<circle cx="332.467" cy="752.031" r="7.14215" fill="#2CF3A2"/>
<circle cx="397.937" cy="752.031" r="11.9036" fill="#2CF3A2"/>
<circle r="3.57108" transform="matrix(1 0 0 -1 390.795 690.132)" fill="#2CF3A2"/>
<circle r="3.57108" transform="matrix(1 0 0 -1 374.13 728.224)" fill="#2CF3A2"/>
<circle cx="412.659" cy="669.952" r="3.92315" transform="rotate(75 412.659 669.952)" fill="#2CF3A2"/>
<circle cx="421.967" cy="704.689" r="6.53859" transform="rotate(75 421.967 704.689)" fill="#2CF3A2"/>
<circle r="1.96158" transform="matrix(0.258819 0.965926 0.965926 -0.258819 453.794 692.099)" fill="#2CF3A2"/>
<circle r="1.96158" transform="matrix(0.258819 0.965926 0.965926 -0.258819 431.214 688.672)" fill="#2CF3A2"/>
<circle cx="387.944" cy="644.94" r="3.92315" transform="rotate(15 387.944 644.94)" fill="#2CF3A2"/>
<circle cx="422.681" cy="654.248" r="6.53859" transform="rotate(15 422.681 654.248)" fill="#2CF3A2"/>
<circle r="1.96158" transform="matrix(0.965926 0.258819 0.258819 -0.965926 427.691 620.39)" fill="#2CF3A2"/>
<circle r="1.96158" transform="matrix(0.965926 0.258819 0.258819 -0.965926 413.434 638.232)" fill="#2CF3A2"/>
<circle cx="275.477" cy="734.047" r="7.14215" transform="rotate(-24.3258 275.477 734.047)" fill="#2CF3A2"/>
<circle cx="335.134" cy="707.078" r="11.9036" transform="rotate(-24.3258 335.134 707.078)" fill="#2CF3A2"/>
<circle r="3.57108" transform="matrix(0.911218 -0.411924 -0.411924 -0.911218 303.128 653.617)" fill="#2CF3A2"/>
<circle r="3.57108" transform="matrix(0.911218 -0.411924 -0.411924 -0.911218 303.634 695.192)" fill="#2CF3A2"/>
<circle cx="389.927" cy="596.397" r="7.14215" transform="rotate(164.227 389.927 596.397)" fill="#2CF3A2"/>
<circle cx="326.922" cy="614.193" r="11.9036" transform="rotate(164.227 326.922 614.193)" fill="#2CF3A2"/>
<circle r="3.57108" transform="matrix(-0.962345 0.27183 0.27183 0.962345 350.621 671.82)" fill="#2CF3A2"/>
<circle r="3.57108" transform="matrix(-0.962345 0.27183 0.27183 0.962345 356.304 630.633)" fill="#2CF3A2"/>
<circle cx="421.381" cy="1094.05" r="18.8317" transform="rotate(9.89522 421.381 1094.05)" fill="#2CF3A2"/>
<circle r="9.41587" transform="matrix(0.985124 0.171847 0.171847 -0.985124 600.932 959.694)" fill="#2CF3A2"/>
<circle r="9.41587" transform="matrix(0.985124 0.171847 0.171847 -0.985124 540.385 1051.09)" fill="#2CF3A2"/>
<circle cx="666.869" cy="917.183" r="10.3442" transform="rotate(84.8952 666.869 917.183)" fill="#2CF3A2"/>
<circle cx="675.306" cy="1011.63" r="17.2403" transform="rotate(84.8952 675.306 1011.63)" fill="#2CF3A2"/>
<circle r="5.1721" transform="matrix(0.0889775 0.996034 0.996034 -0.0889775 763.68 993.349)" fill="#2CF3A2"/>
<circle r="5.1721" transform="matrix(0.0889775 0.996034 0.996034 -0.0889775 706.582 974.217)" fill="#2CF3A2"/>
<circle cx="614.005" cy="841.017" r="10.3442" transform="rotate(24.8952 614.005 841.017)" fill="#2CF3A2"/>
<circle cx="700.016" cy="880.933" r="17.2403" transform="rotate(24.8952 700.016 880.933)" fill="#2CF3A2"/>
<circle r="5.1721" transform="matrix(0.907079 0.42096 0.42096 -0.907079 728.371 795.259)" fill="#2CF3A2"/>
<circle r="5.1721" transform="matrix(0.907079 0.42096 0.42096 -0.907079 683.254 835.141)" fill="#2CF3A2"/>
<circle cx="281.497" cy="1021.51" r="18.8317" transform="rotate(-14.4306 281.497 1021.51)" fill="#2CF3A2"/>
<circle cx="448.675" cy="978.491" r="31.3862" transform="rotate(-14.4306 448.675 978.491)" fill="#2CF3A2"/>
<circle r="9.41587" transform="matrix(0.96845 -0.249207 -0.249207 -0.96845 389.765 825.125)" fill="#2CF3A2"/>
<circle r="9.41587" transform="matrix(0.96845 -0.249207 -0.249207 -0.96845 372.24 933.343)" fill="#2CF3A2"/>
<circle cx="641.149" cy="715.825" r="18.8317" transform="rotate(174.122 641.149 715.825)" fill="#2CF3A2"/>
<circle cx="469.433" cy="733.503" r="31.3862" transform="rotate(174.122 469.433 733.503)" fill="#2CF3A2"/>
<circle r="9.41587" transform="matrix(-0.994742 0.10241 0.10241 0.994742 504.88 893.925)" fill="#2CF3A2"/>
<circle r="9.41587" transform="matrix(-0.994742 0.10241 0.10241 0.994742 538.304 789.517)" fill="#2CF3A2"/>
<circle cx="919.497" cy="247.51" r="18.8317" transform="rotate(-14.4306 919.497 247.51)" fill="#2CF3A2"/>
<circle cx="889.737" cy="1078.53" r="19.7182" transform="rotate(-14.4306 889.737 1078.53)" fill="#2CF3A2"/>
<circle r="5.91547" transform="matrix(0.96845 -0.249207 -0.249207 -0.96845 852.727 982.177)" fill="#2CF3A2"/>
<circle r="5.91547" transform="matrix(0.96845 -0.249207 -0.249207 -0.96845 841.717 1050.16)" fill="#2CF3A2"/>
<circle cx="902.777" cy="924.616" r="19.7182" transform="rotate(174.122 902.777 924.616)" fill="#2CF3A2"/>
<circle r="5.91547" transform="matrix(-0.994742 0.10241 0.10241 0.994742 925.047 1025.4)" fill="#2CF3A2"/>
<circle r="5.91547" transform="matrix(-0.994742 0.10241 0.10241 0.994742 946.046 959.806)" fill="#2CF3A2"/>
</g>
</mask>
<g mask="url(#mask0)">
<path d="M206.742 242C174.742 78.8 470.742 -12.6667 622.742 -38H1056.74V1120H150.742C-71.2576 748 478.742 584 488.742 510C498.742 436 246.742 446 206.742 242Z" fill="white"/>
</g>
</g>
</g>
<defs>
<linearGradient id="paint0_linear" x1="483" y1="-37" x2="483.457" y2="1076.15" gradientUnits="userSpaceOnUse">
<stop stop-color="#242D70"/>
<stop offset="1" stop-color="#2CF3A2"/>
</linearGradient>
<clipPath id="clip0">
<rect width="960" height="1080" fill="white"/>
</clipPath>
</defs>
</svg>
